<?xml version="1.0" encoding="UTF-8"?>
<svg width="818px" height="200px" viewBox="0 0 818 200" version="1.1" xmlns="http://www.w3.org/2000/svg" xmlns:xlink="http://www.w3.org/1999/xlink">
    <title>ai4m-fullLockup</title>
    <g id="UI" stroke="none" stroke-width="1" fill="none" fill-rule="evenodd">
        <path d="M100,0 C155.228908,0 200,44.7710919 200,100 C200,155.228908 155.228908,200 100,200 C44.7710919,200 0,155.228908 0,100 C0,44.7710919 44.7710919,0 100,0 Z M100,8.03839056 C49.2106111,8.03839056 8.03839056,49.2115875 8.03839056,100 C8.03839056,150.789389 49.2106111,191.961609 100,191.961609 C150.789389,191.961609 191.961609,150.789389 191.961609,100 C191.961609,49.2115875 150.789389,8.03839056 100,8.03839056 Z M276.815,83.56 C283.214661,83.56 289.208439,86.7055961 290.906044,93.2960413 L290.99,93.64 L291.41,93.64 L293.195,84.82 L301.28,84.82 L291.83,131.86 L299.495,131.86 L298.13,139 L290.885,139 C286.16,139 283.85,136.375 283.85,132.49 C283.85,131.77 283.927143,130.972857 284.081429,130.098571 L284.165,129.655 L284.69,127.24 L284.375,127.24 C279.965,136.27 274.82,140.26 266.84,140.26 C256.97,140.26 250.355,132.385 250.355,119.575 C250.355,103.615 258.86,83.56 276.815,83.56 Z M519.47,83.56 C528.71,83.56 536.9,88.285 536.9,98.05 C536.9,109.915 524.72,115.585 499.52,115.795 C499.31,117.265 499.205,119.05 499.205,120.205 C499.205,127.87 503.72,133.015 512.12,133.015 C518.799787,133.015 524.272621,129.695878 528.440062,124.731105 L528.71,124.405 L533.96,129.13 C527.24,137.32 519.365,140.26 511.595,140.26 C498.68,140.26 491.12,132.28 491.12,117.58 C491.12,99.625 502.46,83.56 519.47,83.56 Z M800.345,83.56 C809.585,83.56 817.775,88.285 817.775,98.05 C817.775,109.915 805.595,115.585 780.395,115.795 C780.185,117.265 780.08,119.05 780.08,120.205 C780.08,127.87 784.595,133.015 792.995,133.015 C799.674787,133.015 805.147621,129.695878 809.315062,124.731105 L809.585,124.405 L814.835,129.13 C808.115,137.32 800.24,140.26 792.47,140.26 C779.555,140.26 771.995,132.28 771.995,117.58 C771.995,99.625 783.335,83.56 800.345,83.56 Z M660.275,83.56 C669.685227,83.56 675.938344,88.7539566 678.131656,95.9322947 L678.23,96.265 L671.51,99.31 C669.725,93.64 666.05,90.805 660.065,90.805 C651.578,90.805 646.049621,96.5182 644.083248,105.832756 L644,106.24 L642.215,115.06 C641.9,116.635 641.795,118.525 641.795,119.785 C641.795,127.555 645.89,133.015 654.185,133.015 C659.346017,133.015 663.593796,130.5797 667.826097,122.81632 L668.045,122.41 L674.45,125.56 C669.935,134.905 662.69,140.26 653.345,140.26 C641.06,140.26 633.71,131.44 633.71,118.105 C633.71,99.31 643.895,83.56 660.275,83.56 Z M600.635,61.3 L586.46,131.86 L594.125,131.86 L592.76,139 L585.515,139 C580.79,139 578.48,136.375 578.48,132.49 C578.48,131.77 578.557143,130.972857 578.711429,130.098571 L578.795,129.655 L579.32,127.24 L579.005,127.24 C574.595,136.27 569.45,140.26 561.47,140.26 C551.6,140.26 544.985,132.385 544.985,119.575 C544.985,103.615 553.49,83.56 571.445,83.56 C577.844661,83.56 583.838439,86.7055961 585.536044,93.2960413 L585.62,93.64 L586.04,93.64 L592.55,61.3 L600.635,61.3 Z M623.63,84.82 L614.18,131.86 L621.845,131.86 L620.48,139 L613.55,139 C608.615,139 606.2,136.27 606.2,132.385 C606.2,131.731667 606.282963,131.078333 606.448889,130.203765 L606.515,129.865 L615.545,84.82 L623.63,84.82 Z M390.53,65.71 L380.24,117.475 L390.215,117.475 L388.85,124.615 L378.77,124.615 L375.83,139 L367.535,139 L370.475,124.615 L337.295,124.615 L338.87,116.32 L378.245,65.71 L390.53,65.71 Z M329,84.82 L319.55,131.86 L327.215,131.86 L325.85,139 L318.92,139 C313.985,139 311.57,136.27 311.57,132.385 C311.57,131.731667 311.652963,131.078333 311.818889,130.203765 L311.885,129.865 L320.915,84.82 L329,84.82 Z M702.59,84.82 L693.14,131.86 L700.805,131.86 L699.44,139 L692.51,139 C687.575,139 685.16,136.27 685.16,132.385 C685.16,131.731667 685.242963,131.078333 685.408889,130.203765 L685.475,129.865 L694.505,84.82 L702.59,84.82 Z M464.66,83.56 C473.69,83.56 478.31,89.02 478.31,98.47 C478.31,100.408462 478.131065,102.525858 477.69061,104.904775 L477.575,105.505 L472.325,131.86 L479.99,131.86 L478.625,139 L471.065,139 C466.865,139 464.135,137.11 464.135,133.015 C464.135,132.3535 464.22005,131.77705 464.39015,130.902925 L464.45,130.6 L469.49,105.505 C469.91,103.405 470.12,101.41 470.12,99.73 C470.12,93.955 467.6,90.91 461.825,90.91 C458.465,90.91 455.525,92.275 452.69,95.215 C449.336774,98.5682258 446.966899,103.986488 446.056189,108.329409 L445.97,108.76 L439.88,139 L431.795,139 L438.515,105.61 C438.935,103.51 439.145,101.305 439.145,99.52 C439.145,93.955 436.73,90.91 431.585,90.91 C427.91,90.91 424.655,92.59 422.24,95.11 C418.480323,98.8696774 415.900666,104.202716 414.976845,108.349389 L414.89,108.76 L408.8,139 L400.715,139 L411.635,84.82 L419.72,84.82 L417.515,95.53 L418.04,95.53 C421.82,87.445 426.65,83.56 434.525,83.56 C441.965,83.56 446.15082,87.9328042 447.08246,95.1772285 L447.125,95.53 L447.755,95.53 C451.43,87.445 456.68,83.56 464.66,83.56 Z M745.22,83.56 C754.565,83.56 759.185,89.23 759.185,98.575 C759.185,100.4275 759.003929,102.642143 758.557717,105.050791 L758.45,105.61 L753.2,131.86 L760.865,131.86 L759.5,139 L751.835,139 C747.845,139 745.115,137.11 745.115,132.91 C745.115,132.3325 745.115,131.843229 745.276753,130.956927 L745.325,130.705 L750.365,105.61 C750.785,103.51 750.89,101.305 750.89,100.045 C750.89,93.955 748.37,90.91 742.595,90.91 C738.71,90.91 735.56,92.275 732.62,95.215 C729.161562,98.6734375 726.491445,104.102676 725.564255,108.352513 L725.48,108.76 L719.39,139 L711.305,139 L722.225,84.82 L730.31,84.82 L728.105,95.53 L728.63,95.53 C732.41,87.445 737.45,83.56 745.22,83.56 Z M132.497339,82.9850324 C132.615479,83.4780953 132.811728,83.9526074 133.09292,84.8010662 C134.427608,82.9118052 135.478173,81.2344148 136.714248,79.7073842 C142.889739,72.0761367 150.5122,67.7479228 160.674178,69.6049638 C168.324953,71.0031146 174.207536,77.2440222 174.133068,85.0158659 C174.083434,90.1892075 173.338342,95.3777791 172.51851,100.530321 L172.164388,102.736198 L171.987288,103.837201 C171.558645,106.510286 170.966937,109.963824 170.331466,113.581503 L170.189578,114.387884 C170.165826,114.522647 170.142026,114.657573 170.118185,114.79263 L169.902644,116.010843 L169.75818,116.824417 C169.734071,116.960004 169.709951,117.095565 169.685826,117.23107 L169.541055,118.043168 C168.093662,126.15234 166.670184,133.832131 166.579853,134.319164 L166.575312,134.34364 L155.679109,134.34364 C155.679109,134.34364 157.125006,126.517883 158.771377,117.505287 L158.917134,116.707147 C159.038979,116.039745 159.161709,115.366982 159.28483,114.691497 L159.432731,113.879778 L159.432731,113.879778 L159.636359,112.761259 C159.772117,112.015157 159.907779,111.268796 160.042685,110.525688 L160.244397,109.413905 C161.450275,102.763117 162.568282,96.5181164 163.118013,93.2397653 C163.928394,88.403843 163.860048,83.4995753 159.121762,80.4455141 C154.490876,77.4607746 149.753566,78.6148348 145.419494,81.264682 C138.182697,85.6885795 133.999961,92.5885316 131.948624,100.49609 C129.723514,109.070786 125.400807,133.806162 125.314576,134.300012 L125.313266,134.307515 L114.460999,134.307515 C114.460999,134.307515 114.470387,134.255828 114.488514,134.156028 L114.530439,133.925198 C114.615576,133.456452 114.775854,132.573994 114.993738,131.374338 L115.103668,130.769067 C116.608418,122.483956 120.339608,101.939104 121.753449,94.1448531 C122.034641,92.5953662 122.147899,90.9941321 122.145947,89.4163306 C122.135207,81.466789 116.010486,77.0136007 108.361664,79.3793265 C102.576718,81.1670458 98.6331905,85.2248074 95.4160768,90.1095478 C91.1054374,96.6531278 89.2620654,104.046143 88.0132981,111.660792 C87.6788308,113.700884 87.2359173,116.299363 86.7677352,119.004672 L86.6450822,119.712531 C86.6245628,119.830812 86.6040092,119.949221 86.5834284,120.067721 L86.2425086,122.025015 L86.2425086,122.025015 L86.0877554,122.91011 C85.2234198,127.848228 84.4074756,132.422433 84.1464123,133.883077 L84.1129469,134.070262 C84.0841873,134.231079 84.0665967,134.329308 84.0615321,134.357584 L84.0600072,134.366097 L73.1735679,134.366097 L76.2510618,116.152059 L48.5497115,116.152059 L37.8351119,134.420773 L24.8397301,134.420773 L62.627879,71.8086135 L74.5238769,71.8086135 L54.1579364,105.920758 L78.0729538,105.920758 L84.2484451,70.8674002 L95.0977827,70.8674002 L93.0513274,83.4820008 C93.5209576,82.827838 94.6857578,81.1846203 95.1729626,80.5451031 C100.075278,74.0991594 106.197069,69.5922711 114.553754,69.1782935 C123.764755,68.7223323 130.328839,73.9146269 132.497339,82.9850324 Z M277.55,90.91 C268.850822,90.91 263.011648,96.7321505 260.838427,106.966039 L260.75,107.395 L259.175,115.27 C258.86,117.055 258.65,118.84 258.65,120.625 C258.65,127.66 261.8,132.91 269.045,132.91 C273.77,132.91 277.235,130.705 280.385,127.555 C283.7345,124.2055 286.004717,120.2673 287.100804,115.076477 L287.21,114.535 L289.415,103.51 C290.78,96.79 287.21,90.91 277.55,90.91 Z M572.18,90.91 C563.480822,90.91 557.641648,96.7321505 555.468427,106.966039 L555.38,107.395 L553.805,115.27 C553.49,117.055 553.28,118.84 553.28,120.625 C553.28,127.66 556.43,132.91 563.675,132.91 C568.4,132.91 571.865,130.705 575.015,127.555 C578.3645,124.2055 580.634717,120.2673 581.730804,115.076477 L581.84,114.535 L584.045,103.51 C585.41,96.79 581.84,90.91 572.18,90.91 Z M380.45,74.74 L380.03,74.74 L346.535,117.475 L371.945,117.475 L380.45,74.74 Z M518.63,90.49 C510.241507,90.49 503.385159,96.6185795 501.284756,106.054913 L501.2,106.45 L500.57,109.495 C523.775,108.655 528.605,105.4 528.605,97.945 C528.605,92.17 523.775,90.49 518.63,90.49 Z M799.505,90.49 C791.116507,90.49 784.260159,96.6185795 782.159756,106.054913 L782.075,106.45 L781.445,109.495 C804.65,108.655 809.48,105.4 809.48,97.945 C809.48,92.17 804.65,90.49 799.505,90.49 Z M703.115,61.3 C706.277,61.3 707.457286,62.8853714 707.522149,64.8048033 L707.525,64.975 L707.524068,65.1477361 C707.517854,65.556966 707.470217,66.1802174 707.105,67.915 C706.58,70.54 704.9,72.115 701.435,72.115 C698.18,72.115 697.025,70.435 697.025,68.44 L697.025004,68.4124458 L697.025004,68.4124458 L697.025932,68.2672639 C697.032146,67.858034 697.079783,67.2347826 697.445,65.5 C697.97,62.875 699.65,61.3 703.115,61.3 Z M624.155,61.3 C627.317,61.3 628.497286,62.8853714 628.562149,64.8048033 L628.565,64.975 L628.564068,65.1477361 C628.557854,65.556966 628.510217,66.1802174 628.145,67.915 C627.62,70.54 625.94,72.115 622.475,72.115 C619.22,72.115 618.065,70.435 618.065,68.44 L618.065004,68.4124458 L618.065004,68.4124458 L618.065932,68.2672639 C618.072146,67.858034 618.119783,67.2347826 618.485,65.5 C619.01,62.875 620.69,61.3 624.155,61.3 Z M329.525,61.3 C332.687,61.3 333.867286,62.8853714 333.932149,64.8048033 L333.935,64.975 L333.934068,65.1477361 C333.927854,65.556966 333.880217,66.1802174 333.515,67.915 C332.99,70.54 331.31,72.115 327.845,72.115 C324.59,72.115 323.435,70.435 323.435,68.44 L323.435004,68.4124458 L323.435004,68.4124458 L323.435932,68.2672639 C323.442146,67.858034 323.489783,67.2347826 323.855,65.5 C324.38,62.875 326.06,61.3 329.525,61.3 Z M91.6633308,52.2568614 C95.4740727,52.2841995 97.7470441,54.719247 97.6689351,58.6920651 C97.5820388,63.1042462 94.5543394,65.9405786 90.0083967,65.8673514 C86.3460618,65.8077933 83.864149,63.2536296 83.9949815,59.6801437 C84.1521758,55.3695043 87.4005331,52.2256178 91.6633308,52.2568614 Z" id="ai4m-fullLockup" fill="#FFFFFF" fill-rule="nonzero"></path>
    </g>
</svg>