<?xml version="1.0" encoding="UTF-8" standalone="no"?>
<svg xmlns="http://www.w3.org/2000/svg" height="111" width="437">
    <path fill="#1F1F1D" d="M286.254 81c1.44 0 2.815.173 4.12.52 1.304.347 2.528.834 3.67 1.46a14.465 14.465 0 0 1 3.1 2.28 14.987 14.987 0 0 1 2.366 2.94l-6.241 3.88c-.68-1.306-1.604-2.34-2.773-3.099-1.17-.761-2.57-1.14-4.202-1.14-1.196 0-2.283.212-3.262.64a7.788 7.788 0 0 0-2.528 1.74 7.863 7.863 0 0 0-1.653 2.6c-.394 1-.591 2.06-.591 3.18s.19 2.166.572 3.14a7.625 7.625 0 0 0 1.63 2.56 7.834 7.834 0 0 0 2.509 1.74c.965.426 2.046.64 3.242.64 1.795 0 3.29-.447 4.487-1.342a8.618 8.618 0 0 0 2.733-3.419l6.567 3.441a15.64 15.64 0 0 1-2.325 3.32 15.33 15.33 0 0 1-3.121 2.62 14.638 14.638 0 0 1-3.835 1.7c-1.4.4-2.889.599-4.465.599-2.284 0-4.365-.393-6.24-1.18-1.877-.786-3.48-1.853-4.814-3.2-1.332-1.346-2.365-2.933-3.1-4.759-.734-1.828-1.1-3.781-1.1-5.86 0-2.133.38-4.114 1.142-5.94a14.443 14.443 0 0 1 3.18-4.76c1.36-1.347 2.97-2.4 4.835-3.16 1.86-.76 3.895-1.141 6.097-1.141zm-87.949 0c2.877 0 5.36.534 7.45 1.6 2.09 1.068 3.84 2.493 5.25 4.28L205.064 91a7.172 7.172 0 0 0-2.748-2.52c-1.127-.586-2.449-.88-3.969-.88-1.14 0-2.212.214-3.217.64a8.195 8.195 0 0 0-2.624 1.761 8.235 8.235 0 0 0-1.77 2.659c-.435 1.028-.652 2.14-.652 3.341 0 1.254.203 2.386.611 3.4a7.785 7.785 0 0 0 1.73 2.64 7.617 7.617 0 0 0 2.665 1.72c1.033.4 2.159.6 3.38.6 1.71 0 3.147-.4 4.314-1.2 1.167-.8 2.009-1.92 2.525-3.36h-8.265v-6.48H213v3.32c0 1.92-.346 3.754-1.038 5.5a13.85 13.85 0 0 1-2.93 4.578c-1.262 1.308-2.783 2.348-4.559 3.121-1.779.773-3.74 1.16-5.882 1.16-2.416 0-4.588-.4-6.513-1.2-1.927-.8-3.562-1.886-4.905-3.26a14.263 14.263 0 0 1-3.094-4.78C183.36 99.947 183 98.028 183 96c0-2.106.38-4.082 1.14-5.921.759-1.84 1.811-3.426 3.154-4.76 1.344-1.333 2.951-2.386 4.824-3.16 1.873-.772 3.934-1.16 6.187-1.16zM323 81v6.436h-13.094v4.767H323v6.435h-13.094v4.926H323V110h-20V81zM42 81v29h-7V81zm207.304 0l11.036 17.4V81H267v29h-6.78l-11.517-18.234V110H242V81zM237 81v6.436h-13.095v4.767H237v6.435h-13.095v4.926H237V110h-20V81zM98 81v6.397h-7.992V110h-6.933V87.397H75V81zm23 0v6.436h-13.095v4.767H121v6.435h-13.095v4.926H121V110h-20V81zm12.1 0v22.367H146V110h-20V81zm22.999 0v22.367H169V110h-20V81zM179 81v29h-7V81zM54.303 81L65.34 98.4V81H72v29h-6.782L53.702 91.766V110H47V81zm305.95-40c1.442 0 2.815.173 4.121.519 1.304.348 2.527.835 3.67 1.46a14.443 14.443 0 0 1 3.1 2.28 14.829 14.829 0 0 1 2.365 2.941l-6.24 3.88c-.679-1.307-1.604-2.34-2.773-3.1-1.17-.76-2.57-1.14-4.201-1.14-1.196 0-2.285.213-3.262.64a7.787 7.787 0 0 0-2.53 1.74 7.85 7.85 0 0 0-1.651 2.6 8.612 8.612 0 0 0-.593 3.18c0 1.12.191 2.167.573 3.14a7.697 7.697 0 0 0 4.14 4.3c.964.427 2.045.64 3.24.64 1.796 0 3.29-.448 4.488-1.34a8.627 8.627 0 0 0 2.734-3.42L374 62.76a15.682 15.682 0 0 1-2.325 3.32 15.383 15.383 0 0 1-3.121 2.62 14.65 14.65 0 0 1-3.834 1.7c-1.401.4-2.888.6-4.466.6-2.284 0-4.363-.394-6.24-1.18-1.877-.786-3.48-1.853-4.813-3.2-1.332-1.347-2.366-2.933-3.1-4.759C345.367 60.033 345 58.08 345 56c0-2.134.382-4.113 1.143-5.94a14.443 14.443 0 0 1 3.18-4.76c1.36-1.347 2.97-2.4 4.834-3.16 1.861-.76 3.895-1.14 6.097-1.14zm-128.93 0L242 70h-7l-1.503-4.33h-11.034L220.961 70H214l10.679-29zm173 0L415 70h-7l-1.503-4.33h-11.034L393.96 70H387l10.678-29zm19.777 0v22.366H437V70h-20V41zM384 41v29h-7V41zM50.322 41L61 70h-7l-1.503-4.33H41.463L39.96 70H33l10.678-29zM75.7 41c1.71 0 3.26.285 4.648.854 1.39.57 2.578 1.344 3.566 2.323.989.981 1.75 2.126 2.285 3.437.534 1.31.801 2.708.801 4.191 0 1.457-.267 2.847-.801 4.171a10.552 10.552 0 0 1-2.264 3.477c-.975.992-2.163 1.788-3.566 2.383-1.403.596-2.973.894-4.708.894h-4.65V70H64V41zm26 0c1.71 0 3.259.285 4.648.854 1.389.57 2.577 1.344 3.567 2.323.987.981 1.748 2.126 2.283 3.437a10.99 10.99 0 0 1 .802 4.191c0 1.457-.267 2.847-.802 4.171a10.552 10.552 0 0 1-2.264 3.477c-.975.992-2.164 1.788-3.567 2.383-1.401.596-2.97.894-4.708.894h-4.647V70H90V41zm22.399 0v22.366H137V70h-20V41zM147 41v29h-7V41zm25 0v6.435h-13.094v4.767H172v6.436h-13.094v4.926H172V70h-20V41zm15.538 0c2.305 0 4.408.37 6.306 1.112 1.9.741 3.527 1.761 4.883 3.059a13.645 13.645 0 0 1 3.153 4.588c.746 1.762 1.12 3.676 1.12 5.741 0 2.065-.388 3.987-1.16 5.76-.774 1.775-1.838 3.304-3.194 4.59-1.356 1.284-2.977 2.296-4.862 3.037C191.9 69.63 189.858 70 187.66 70H177V41zm69.897 0c1.743 0 3.287.265 4.634.794 1.347.53 2.482 1.245 3.407 2.146a8.96 8.96 0 0 1 2.099 3.157c.474 1.206.711 2.497.711 3.874 0 1.854-.415 3.53-1.247 5.026a9.127 9.127 0 0 1-3.426 3.516L269 70h-7.605l-4.079-8.7h-5.424V70H245V41zM329 41v6.514h-13.068v5.165H329v6.396h-13.068V70H309V41zm12 0v29h-7V41zm-47 0v6.396h-7.993V70h-6.932V47.396H271V41zm10 0v29h-7V41zm-116.787 6.435h-3.134v16.09h3.256c1.302 0 2.475-.204 3.52-.616a7.972 7.972 0 0 0 2.686-1.708 7.411 7.411 0 0 0 1.707-2.563c.393-.979.59-2.025.59-3.138 0-1.138-.19-2.198-.57-3.178a7.296 7.296 0 0 0-1.667-2.563c-.732-.728-1.635-1.297-2.706-1.708-1.071-.41-2.3-.616-3.682-.616zM228 49.898l-3.4 9.734h6.801zm-181 0l-3.4 9.734h6.8zm354 0l-3.401 9.734h6.803zM75.34 47.276h-4.328v9.02h4.328c1.308 0 2.397-.412 3.265-1.233.868-.822 1.302-1.906 1.302-3.258 0-1.351-.434-2.443-1.302-3.277-.868-.834-1.957-1.252-3.265-1.252zm26 0h-4.328v9.02h4.328c1.308 0 2.397-.412 3.265-1.233.868-.822 1.302-1.906 1.302-3.258 0-1.351-.434-2.443-1.302-3.277-.868-.834-1.957-1.252-3.265-1.252zm155.58.04h-5.028v7.708h5.029c1.479 0 2.568-.379 3.268-1.133.699-.754 1.049-1.675 1.049-2.761 0-1.192-.357-2.126-1.07-2.801-.712-.675-1.796-1.013-3.247-1.013zM140.323 1L151 30h-7l-1.502-4.33h-11.035L129.961 30H123l10.678-29zM172 1v6.396h-7.993V30h-6.933V7.396H149V1zm10 0v29h-7V1zm10.197 0L199 20.584 205.84 1H213l-10.678 29h-6.644L185 1zM236 1v6.435h-13.094v4.767H236v6.436h-13.094v4.926H236V30h-20V1zm36 0v6.515h-13.068v5.165H272v6.395h-13.068V30H252V1zm18.98-1c2.088 0 4.043.394 5.863 1.18 1.82.786 3.414 1.86 4.78 3.22a14.965 14.965 0 0 1 3.212 4.76c.776 1.814 1.165 3.76 1.165 5.839 0 2.08-.389 4.034-1.165 5.861-.777 1.827-1.84 3.413-3.192 4.76a15.237 15.237 0 0 1-4.76 3.2c-1.82.786-3.789 1.18-5.903 1.18-2.089 0-4.043-.394-5.864-1.18a15.21 15.21 0 0 1-4.758-3.2c-1.353-1.347-2.417-2.933-3.193-4.76-.777-1.827-1.165-3.78-1.165-5.861 0-2.08.388-4.025 1.165-5.84a15.09 15.09 0 0 1 3.193-4.76 15.05 15.05 0 0 1 4.758-3.22C286.936.395 288.891 0 290.98 0zm31.456 1c1.742 0 3.286.265 4.634.794 1.345.531 2.481 1.246 3.406 2.146a8.957 8.957 0 0 1 2.099 3.157c.474 1.206.711 2.497.711 3.874 0 1.854-.414 3.53-1.247 5.026a9.108 9.108 0 0 1-3.425 3.515L334 30h-7.605l-4.078-8.7h-5.426V30H310V1zM120 1v29h-7V1zM42 1v29h-7V1zm42 0v29h-7V1zM54.303 1L65.34 18.4V1H72v29h-6.782L53.702 11.765V30H47V1zM110 1v6.396h-7.993V30h-6.933V7.396H87V1zm180.98 5.84a7.8 7.8 0 0 0-3.154.64 7.48 7.48 0 0 0-2.509 1.76 8.454 8.454 0 0 0-1.646 2.6 8.31 8.31 0 0 0-.603 3.159c0 1.12.194 2.167.582 3.141a8.01 8.01 0 0 0 1.647 2.58 7.735 7.735 0 0 0 2.51 1.76c.964.426 2.021.64 3.173.64 1.151 0 2.216-.214 3.193-.64a7.717 7.717 0 0 0 2.53-1.76 8.32 8.32 0 0 0 1.666-2.58c.403-.974.603-2.02.603-3.141 0-1.12-.2-2.172-.603-3.16a8.062 8.062 0 0 0-1.687-2.6 7.934 7.934 0 0 0-2.549-1.76 7.805 7.805 0 0 0-3.153-.64zM137 9.898l-3.4 9.733h6.8zm184.92-2.581h-5.029v7.706h5.029c1.48 0 2.568-.378 3.268-1.133.7-.754 1.05-1.673 1.05-2.76 0-1.192-.357-2.126-1.07-2.8-.712-.676-1.795-1.013-3.248-1.013z" fill-rule="evenodd"/>
</svg>
