<svg xmlns="http://www.w3.org/2000/svg" xmlns:xlink="http://www.w3.org/1999/xlink" x="0px" y="0px" width="150px" height="56px" preserveAspectRatio="xMidYMid meet" viewBox="0 0 558.62 206.79" xml:space="preserve">
    <defs>
        <style>.cls-1{fill:url(#linear-gradient);}.cls-2{fill:url(#linear-gradient-2);}.cls-3{fill:#58595b;}</style>
        <linearGradient id="linear-gradient" x1="493.35" y1="38.73" x2="434.73" y2="142.91" gradientTransform="translate(530.01 232.93) rotate(180)" gradientUnits="userSpaceOnUse">
            <stop offset="0.01" stop-color="#b5e3ee" />
            <stop offset="0.29" stop-color="#9ddae9" />
            <stop offset="0.39" stop-color="#95d4e6" />
            <stop offset="0.56" stop-color="#80c5dd" />
            <stop offset="0.75" stop-color="#5eabcf" />
            <stop offset="0.95" stop-color="#348cbe" />
        </linearGradient>
        <linearGradient id="linear-gradient-2" x1="399.36" y1="46.09" x2="445.47" y2="199.56" gradientTransform="translate(530.01 232.93) rotate(180)" gradientUnits="userSpaceOnUse">
            <stop offset="0.01" stop-color="#b5e3ee" />
            <stop offset="0.29" stop-color="#9ddae9" />
            <stop offset="0.39" stop-color="#95d6e7" />
            <stop offset="0.55" stop-color="#80c9e0" />
            <stop offset="0.74" stop-color="#5eb5d6" />
            <stop offset="0.96" stop-color="#2e9ac7" />
            <stop offset="1" stop-color="#2494c4" />
        </linearGradient>
    </defs>
    <g id="Ebene_2" data-name="Ebene 2">
        <g id="Notes">
            <path class="cls-1" d="M32.14,97.35c-3,3.3-4.59,5.43-7.29,11.92-.28.67-2.48,5.1-6.88,14-4.5,9.06-7.55,15-12.11,24.58-3.65,7.66-4.39,9.53-5,12.33a38.43,38.43,0,0,0,.05,16.54A37.25,37.25,0,0,0,12.4,195.81c1.61,1.41,9.45,7.46,26,8.93,9.28.82,16.06-4.67,17.94-5.86,1.62-1,2-1.43,5.54-4.15,5.57-4.26,8.93-6.51,15.21-10.9,5.19-3.63,1.93-1.42,24.17-17.3l18.59-13.24a36,36,0,0,0-2.74-5.14c-.33-.54,0-.08-5.69-10.69-9.19-17.26-8.08-15-10.16-19-5.07-9.83-5.74-11.87-9.07-16.7a45.89,45.89,0,0,0-7.33-8.91,34.13,34.13,0,0,0-15-8.5A33.62,33.62,0,0,0,55.46,84c-4.57.9-8.23,2.17-14.56,6.33C35.71,93.74,34.18,95.1,32.14,97.35Z" />
            <path class="cls-2" d="M118.84,155.94c7.56,15.21,9.52,20.37,15.22,30.55,3.17,5.67,5.24,8.2,8.4,11a38,38,0,0,0,23.47,9.27c1.8,0,17.11.05,27.93-12.46,9.66-11.16,10.82-26.62,7.25-36.56-.68-1.89-2.79-6.24-7-14.94-2.92-6-5.19-10.44-5.8-11.65C169.69,94.72,160.57,76.41,156,66.32c-7.61-16.68-13.2-28.41-24.2-48.34a33.1,33.1,0,0,0-2.93-4.26,37.73,37.73,0,0,0-16-11.51A36,36,0,0,0,91.62,1.12C78.36,4.6,71.06,14.81,68.19,19.86a117.89,117.89,0,0,0-6,12.36c-1.47,3.26-5.35,11.66-13.68,28.22-12.67,25.2-20.83,42.61-21.63,44.45-.44,1,6.25-8.83,13.1-13,4.35-2.65,9.37-5.69,16-6.7A33.35,33.35,0,0,1,75.5,88.49C83,92.22,87,97.73,90.13,101.94c1.94,2.65,2.45,3.82,7.06,12.75,4.92,9.52,10,18.95,15,28.45C118.93,156.13,118.21,154.67,118.84,155.94Z" />
            <path class="cls-3" d="M265.58,101.58l-4.72-12.79h-27l-4.72,12.79h-7.36L243.18,44h8.24l21.52,57.63ZM247.34,50.35,235.74,82.4h23.12Z" />
            <path class="cls-3" d="M295.9,101.58,274.46,44h7.6l18,49.77,18-49.77h7.6l-21.53,57.63Z" />
            <path class="cls-3" d="M337.42,101.58V44h35v6.4H344.06V68.92h27.76v6.4H344.06V95.19h28.32v6.39Z" />
            <path class="cls-3" d="M387.74,101.58V44h6.64V95.19h24.8v6.39Z" />
            <path class="cls-3" d="M432.94,101.58V44h6.64v57.63Z" />
            <path class="cls-3" d="M480.38,43c15.76,0,26.48,12.79,26.48,29.81s-10.72,29.81-26.48,29.81S453.9,89.83,453.9,72.81,464.54,43,480.38,43Zm0,6.4c-12,0-19.6,9.93-19.6,23.41s7.6,23.41,19.6,23.41S500,86.2,500,72.81,492.3,49.4,480.38,49.4Z" />
            <path class="cls-3" d="M522.38,88a21.92,21.92,0,0,0,16.8,8.2c9.52,0,12.56-5.53,12.56-9.93,0-6.91-6.48-8.81-13.52-10.89-8.56-2.42-18.08-5-18.08-16.33,0-9.5,7.84-16,18.32-16,8.16,0,14.48,2.94,19,8l-4,5.27A19.7,19.7,0,0,0,538,49.48c-6.4,0-11,3.72-11,9.16,0,5.79,6.16,7.52,13,9.5,8.72,2.51,18.64,5.45,18.64,17.54,0,8.38-5.28,16.94-19.68,16.94-9.28,0-16.08-3.81-20.48-9.16Z" />
            <path class="cls-3" d="M303.66,166.41V131.65l-13.17,34.76h-2l-13.11-34.76v34.76H270.6V124.63h6.9l12,31.82,12.06-31.82h6.9v41.78Z" />
            <path class="cls-3" d="M320.71,166.41V124.63h25.35v4.64H325.52v13.46h20.13v4.64H325.52v14.41h20.54v4.63Z" />
            <path class="cls-3" d="M356.9,166.41V124.63h13.23c12,0,19.83,9.08,19.83,20.92s-7.83,20.86-19.83,20.86Zm4.81-4.63h8.42c9.39,0,14.84-7.27,14.84-16.23s-5.28-16.28-14.84-16.28h-8.42Z" />
            <path class="cls-3" d="M400.69,166.41V124.63h4.82v41.78Z" />
            <path class="cls-3" d="M416.18,145.55c0-12.84,8.75-21.61,19.72-21.61,7,0,11.77,3.57,14.84,8.27l-4.06,2.44a12.88,12.88,0,0,0-10.78-6.07c-8.3,0-14.73,7-14.73,17s6.43,17,14.73,17a12.73,12.73,0,0,0,10.78-6.08l4.12,2.44c-3.25,4.76-7.89,8.27-14.9,8.27C424.93,167.16,416.18,158.39,416.18,145.55Z" />
            <path class="cls-3" d="M487.75,166.41l-3.42-9.27H464.72l-3.42,9.27H456l15.54-41.78h6l15.61,41.78Zm-13.22-37.14-8.41,23.24h16.76Z" />
            <path class="cls-3" d="M501.32,166.41V124.63h4.81v37.15h18v4.63Z" />
        </g>
    </g>
</svg>