<svg width="40" height="40" viewBox="0 0 40 40" fill="none" xmlns="http://www.w3.org/2000/svg">
<path fill-rule="evenodd" clip-rule="evenodd" d="M21 11H19C16.7909 11 15 12.7909 15 15V22.8333C15 25.0425 16.7909 26.8333 19 26.8333H21C23.2091 26.8333 25 25.0425 25 22.8333V15C25 12.7909 23.2091 11 21 11ZM19 9C15.6863 9 13 11.6863 13 15V22.8333C13 26.147 15.6863 28.8333 19 28.8333H21C24.3137 28.8333 27 26.147 27 22.8333V15C27 11.6863 24.3137 9 21 9H19Z" fill="black"/>
<path d="M20 15.8333C20 15.281 20.4477 14.8333 21 14.8333H24.8333C25.3856 14.8333 25.8333 15.281 25.8333 15.8333V16.1667C25.8333 16.719 25.3856 17.1667 24.8333 17.1667H21C20.4477 17.1667 20 16.719 20 16.1667V15.8333Z" fill="black"/>
<path d="M20 19.3333C20 18.7811 20.4477 18.3333 21 18.3333H24.8333C25.3856 18.3333 25.8333 18.7811 25.8333 19.3333V19.6667C25.8333 20.219 25.3856 20.6667 24.8333 20.6667H21C20.4477 20.6667 20 20.219 20 19.6667V19.3333Z" fill="black"/>
<path d="M20 22.8333C20 22.2811 20.4477 21.8333 21 21.8333H24.8333C25.3856 21.8333 25.8333 22.2811 25.8333 22.8333V23.1667C25.8333 23.719 25.3856 24.1667 24.8333 24.1667H21C20.4477 24.1667 20 23.719 20 23.1667V22.8333Z" fill="black"/>
<path d="M20.1665 27.6667C20.7188 27.6667 21.1665 28.1144 21.1665 28.6667L21.1665 30.1667C21.1665 30.719 20.7188 31.1667 20.1665 31.1667L19.8332 31.1667C19.2809 31.1667 18.8332 30.719 18.8332 30.1667L18.8332 28.6667C18.8332 28.1144 19.2809 27.6667 19.8332 27.6667L20.1665 27.6667Z" fill="black"/>
</svg>
