<svg width="40" height="40" viewBox="0 0 40 40" fill="none" xmlns="http://www.w3.org/2000/svg">
<path fill-rule="evenodd" clip-rule="evenodd" d="M13.999 21.0001C13.999 24.3139 16.6855 27.0004 19.9993 27.0004C23.3132 27.0004 25.9996 24.3139 25.9996 21.0001C25.9996 17.6862 23.3132 14.9998 19.9993 14.9998C16.6855 14.9998 13.999 17.6862 13.999 21.0001ZM19.9993 12.9998C15.5809 12.9998 11.999 16.5816 11.999 21.0001C11.999 25.4185 15.5809 29.0004 19.9993 29.0004C24.4178 29.0004 27.9996 25.4185 27.9996 21.0001C27.9996 16.5816 24.4178 12.9998 19.9993 12.9998Z" fill="black"/>
<path fill-rule="evenodd" clip-rule="evenodd" d="M17.0575 18.234C17.4481 17.8435 18.0812 17.8435 18.4718 18.234L20.7071 20.4694C21.0977 20.86 21.0977 21.4931 20.7071 21.8836C20.3166 22.2742 19.6834 22.2742 19.2929 21.8836L17.0575 19.6483C16.667 19.2577 16.667 18.6246 17.0575 18.234Z" fill="black"/>
<path d="M17.7646 10.9996C17.7646 10.4473 18.2124 9.99963 18.7646 9.99963H21.2354C21.7877 9.99963 22.2354 10.4473 22.2354 10.9996V11.235C22.2354 11.7873 21.7877 12.235 21.2354 12.235H18.7646C18.2124 12.235 17.7646 11.7873 17.7646 11.235V10.9996Z" fill="black"/>
</svg>
