<svg width="24" height="24" viewBox="0 0 24 24" fill="none" xmlns="http://www.w3.org/2000/svg">
<path d="M10.4142 14.4142L9.70711 15.1213L9.70711 15.1213L10.4142 14.4142ZM10.5858 14.5857L11.2929 13.8786L11.2929 13.8786L10.5858 14.5857ZM13.4142 14.5857L12.7071 13.8786L12.7071 13.8786L13.4142 14.5857ZM15.5858 12.4142L14.8787 11.707L14.8787 11.707L15.5858 12.4142ZM18.4142 12.4142L19.1213 11.707L19.1213 11.707L18.4142 12.4142ZM4.70711 17.2928L4 16.5857L4.70711 17.2928ZM18.8284 12.8284L18.1213 13.5355L18.8284 12.8284ZM19 15.6568V18.9999H21V15.6568H19ZM19 18.9999H5V20.9999H19V18.9999ZM5 18.9999H3C3 20.1045 3.89543 20.9999 5 20.9999V18.9999ZM19 18.9999V20.9999C20.1046 20.9999 21 20.1045 21 18.9999H19ZM5.41421 17.9999L8.29289 15.1213L6.87868 13.707L4 16.5857L5.41421 17.9999ZM9.70711 15.1213L9.87868 15.2928L11.2929 13.8786L11.1213 13.707L9.70711 15.1213ZM14.1213 15.2928L16.2929 13.1213L14.8787 11.707L12.7071 13.8786L14.1213 15.2928ZM17.7071 13.1213L18.1213 13.5355L19.5355 12.1213L19.1213 11.707L17.7071 13.1213ZM16.2929 13.1213C16.6834 12.7307 17.3166 12.7307 17.7071 13.1213L19.1213 11.707C17.9497 10.5355 16.0503 10.5355 14.8787 11.707L16.2929 13.1213ZM9.87868 15.2928C11.0503 16.4644 12.9497 16.4644 14.1213 15.2928L12.7071 13.8786C12.3166 14.2691 11.6834 14.2691 11.2929 13.8786L9.87868 15.2928ZM8.29289 15.1213C8.68342 14.7307 9.31658 14.7307 9.70711 15.1213L11.1213 13.707C9.94975 12.5355 8.05025 12.5355 6.87868 13.707L8.29289 15.1213ZM5 18.9999C5 18.6249 5.149 18.2652 5.41421 17.9999L4 16.5857C3.35971 17.226 3 18.0944 3 18.9999H5ZM21 15.6568C21 14.3307 20.4732 13.0589 19.5355 12.1213L18.1213 13.5355C18.6839 14.0981 19 14.8611 19 15.6568H21Z" fill="black"/>
<path d="M11 6.5C11 7.32747 10.3277 8 9.49932 8V10C11.4317 10 13 8.43255 13 6.5H11ZM9.49932 8C8.67268 8 8 7.32782 8 6.5H6C6 8.4322 7.56791 10 9.49932 10V8ZM8 6.5C8 5.67218 8.67267 5 9.49932 5V3C7.56791 3 6 4.5678 6 6.5H8ZM9.49932 5C10.3277 5 11 5.67253 11 6.5H13C13 4.56745 11.4317 3 9.49932 3V5Z" fill="black"/>
</svg>
