<?xml version="1.0" encoding="UTF-8" standalone="no"?><!DOCTYPE svg PUBLIC "-//W3C//DTD SVG 1.1//EN" "http://www.w3.org/Graphics/SVG/1.1/DTD/svg11.dtd"><svg width="100%" height="100%" viewBox="0 0 1975 1925" version="1.1" xmlns="http://www.w3.org/2000/svg" xmlns:xlink="http://www.w3.org/1999/xlink" xml:space="preserve" xmlns:serif="http://www.serif.com/" style="fill-rule:evenodd;clip-rule:evenodd;stroke-linecap:round;stroke-linejoin:round;stroke-miterlimit:1.5;"><g><circle cx="987.011" cy="868.978" r="763.757" style="fill:#fff;"/><path d="M987.011,105.221c421.529,-0 763.757,342.228 763.757,763.757c-0,421.528 -342.228,763.756 -763.757,763.756c-421.529,0 -763.757,-342.228 -763.757,-763.756c0,-421.529 342.228,-763.757 763.757,-763.757Zm0,148.967c339.312,0 614.789,275.478 614.789,614.79c0,339.311 -275.477,614.789 -614.789,614.789c-339.311,-0 -614.789,-275.478 -614.789,-614.789c-0,-339.312 275.478,-614.79 614.789,-614.79Z" style="fill:#3588b8;"/><path d="M290.347,403.454c150.355,-224.481 406.37,-372.419 696.664,-372.419c290.295,-0 546.309,147.938 696.665,372.419" style="fill:none;stroke:#028f45;stroke-width:62.07px;"/><path d="M1683.68,1334.5c-150.356,224.481 -406.37,372.419 -696.665,372.419c-290.294,0 -546.309,-147.938 -696.664,-372.419" style="fill:none;stroke:#028f45;stroke-width:62.07px;"/><path d="M1756.91,1392.41c-167.63,245.966 -450.034,407.612 -769.895,407.612c-304.359,-0 -574.805,-146.359 -744.695,-372.419" style="fill:none;stroke:#3588b8;stroke-width:62.07px;"/><path d="M1830.07,1450.33c-184.872,267.449 -493.647,442.805 -843.056,442.805c-317.722,-0 -601.847,-144.993 -789.797,-372.419" style="fill:none;stroke:#028f45;stroke-width:62.07px;"/><path d="M290.347,1334.5l-234.386,0" style="fill:none;stroke:#028f45;stroke-width:62.08px;stroke-linejoin:miter;"/><path d="M242.316,1427.61l-186.355,-0" style="fill:none;stroke:#3588b8;stroke-width:62.08px;stroke-linejoin:miter;"/><path d="M197.214,1520.71l-141.253,-0" style="fill:none;stroke:#028f45;stroke-width:62.08px;stroke-linejoin:miter;"/><path d="M1683.68,403.454l234.385,-0" style="fill:none;stroke:#028f45;stroke-width:62.08px;stroke-linejoin:miter;"/><text x="629.597px" y="1039.37px" style="font-family:'OCRAExtended', 'OCR A Extended', monospace;font-size:587.232px;">MI</text></g></svg>