<svg width="40" height="40" viewBox="0 0 40 40" fill="none" xmlns="http://www.w3.org/2000/svg">
<path fill-rule="evenodd" clip-rule="evenodd" d="M16.875 13V22C16.875 23.1046 17.7704 24 18.875 24H22.125C23.2296 24 24.125 23.1046 24.125 22V13H16.875ZM15.875 11C15.3227 11 14.875 11.4477 14.875 12V22C14.875 24.2091 16.6659 26 18.875 26H22.125C24.3341 26 26.125 24.2091 26.125 22V12C26.125 11.4477 25.6773 11 25.125 11H15.875Z" fill="black"/>
<path fill-rule="evenodd" clip-rule="evenodd" d="M19.6283 26.5C19.3706 27.8641 18.8124 28.9886 17.9863 30H23.0925C22.2493 28.979 21.6748 27.8565 21.3985 26.5H19.6283ZM18.8032 24.5C18.2464 24.5 17.8057 24.9571 17.751 25.5111C17.5659 27.3842 16.7516 28.6745 15.1252 30.0341C14.3609 30.6731 14.7613 32 15.7575 32H25.339C26.327 32 26.731 30.6934 25.9764 30.0557C24.3044 28.6427 23.4738 27.3447 23.2632 25.496C23.2008 24.9484 22.7624 24.5 22.2112 24.5H18.8032Z" fill="black"/>
<path fill-rule="evenodd" clip-rule="evenodd" d="M26.625 14.25V19H28.125C29.2296 19 30.125 18.1046 30.125 17V14.25H26.625ZM25.625 12.25C25.0727 12.25 24.625 12.6977 24.625 13.25V20C24.625 20.5523 25.0727 21 25.625 21H28.125C30.3341 21 32.125 19.2091 32.125 17V13.25C32.125 12.6977 31.6773 12.25 31.125 12.25H25.625Z" fill="black"/>
<path fill-rule="evenodd" clip-rule="evenodd" d="M10.875 14.25V17C10.875 18.1046 11.7704 19 12.875 19H14.375V14.25H10.875ZM9.875 12.25C9.32272 12.25 8.875 12.6977 8.875 13.25V17C8.875 19.2091 10.6659 21 12.875 21H15.375C15.9273 21 16.375 20.5523 16.375 20V13.25C16.375 12.6977 15.9273 12.25 15.375 12.25H9.875Z" fill="black"/>
</svg>
