<svg width="24" height="24" viewBox="0 0 24 24" fill="none" xmlns="http://www.w3.org/2000/svg">
<path d="M3 2C3 1.44772 2.55228 1 2 1C1.44772 1 1 1.44772 1 2H3ZM2 15H1V16H2V15ZM22.7071 15.7071C23.0976 15.3166 23.0976 14.6834 22.7071 14.2929L16.3431 7.92893C15.9526 7.53841 15.3195 7.53841 14.9289 7.92893C14.5384 8.31946 14.5384 8.95262 14.9289 9.34315L20.5858 15L14.9289 20.6569C14.5384 21.0474 14.5384 21.6805 14.9289 22.0711C15.3195 22.4616 15.9526 22.4616 16.3431 22.0711L22.7071 15.7071ZM1 2V15H3V2H1ZM2 16H22V14H2V16Z" fill="black"/>
</svg>
