<?xml version="1.0" encoding="UTF-8"?>
<svg id="Logo" xmlns="http://www.w3.org/2000/svg" xmlns:xlink="http://www.w3.org/1999/xlink" viewBox="0 0 367.34 102.05">
  <defs>
    <style>
      .cls-1 {
        fill: url(#Unbenannter_Verlauf_10-3);
      }

      .cls-2 {
        fill: url(#Unbenannter_Verlauf_10-2);
      }

      .cls-3 {
        fill: #222323;
      }

      .cls-4 {
        fill: url(#Unbenannter_Verlauf_10);
      }
    </style>
    <linearGradient id="Unbenannter_Verlauf_10" data-name="Unbenannter Verlauf 10" x1="37.13" y1="70.02" x2="75.13" y2="32.03" gradientUnits="userSpaceOnUse">
      <stop offset="0" stop-color="#5cb675"/>
      <stop offset="1" stop-color="#00b4be"/>
    </linearGradient>
    <linearGradient id="Unbenannter_Verlauf_10-2" data-name="Unbenannter Verlauf 10" x1="21.44" y1="85.71" x2="90.81" y2="16.34" xlink:href="#Unbenannter_Verlauf_10"/>
    <linearGradient id="Unbenannter_Verlauf_10-3" data-name="Unbenannter Verlauf 10" x1="30.35" y1="78.93" x2="84.04" y2="25.24" xlink:href="#Unbenannter_Verlauf_10"/>
  </defs>
  <g>
    <path class="cls-4" d="M56.13,24.15c-14.82,0-26.88,12.06-26.88,26.88s12.06,26.88,26.88,26.88,26.88-12.06,26.88-26.88-12.06-26.88-26.88-26.88Zm0,49.91c-12.7,0-23.03-10.33-23.03-23.03s10.33-23.03,23.03-23.03,23.03,10.33,23.03,23.03-10.33,23.03-23.03,23.03Z"/>
    <path class="cls-2" d="M56.13,96.23c-24.97,0-45.21-20.24-45.21-45.21S31.16,5.81,56.13,5.81c12.36,0,23.55,4.96,31.71,12.99l2.7-2.74C81.68,7.35,69.54,1.96,56.13,1.96,29.04,1.96,7.07,23.93,7.07,51.02s21.96,49.06,49.06,49.06,49.06-21.96,49.06-49.06h-3.85c0,24.97-20.24,45.21-45.21,45.21Z"/>
    <path class="cls-1" d="M56.13,13.06h0v3.85c18.84,0,34.12,15.28,34.12,34.12s-15.28,34.12-34.12,34.12-34.12-15.28-34.12-34.12c0-4.53,.89-8.86,2.5-12.81l-3.57-1.44c-1.79,4.4-2.78,9.21-2.78,14.26,0,20.97,17,37.97,37.97,37.97s37.97-17,37.97-37.97S77.1,13.06,56.13,13.06Z"/>
  </g>
  <g>
    <g>
      <path class="cls-3" d="M152.33,38.55c-2.13-1.14-4.59-1.72-7.32-1.72s-5.17,.58-7.29,1.72c-2.11,1.14-3.79,2.76-5,4.83-1.21,2.07-1.82,4.58-1.82,7.45v.85c0,2.87,.61,5.39,1.82,7.48,1.21,2.09,2.89,3.71,5,4.83,2.11,1.12,4.57,1.69,7.29,1.69s5.19-.57,7.32-1.69c2.12-1.12,3.81-2.74,5.02-4.83,1.21-2.09,1.82-4.61,1.82-7.48v-.85c0-2.87-.61-5.37-1.82-7.45-1.21-2.07-2.9-3.7-5.02-4.83Zm1.59,12.96c0,2.96-.83,5.31-2.48,6.99-1.65,1.68-3.81,2.54-6.43,2.54s-4.73-.85-6.38-2.54c-1.64-1.68-2.48-4.03-2.48-6.99v-.51c0-2.96,.83-5.31,2.48-6.99,1.64-1.68,3.79-2.54,6.38-2.54s4.84,.85,6.46,2.54c1.62,1.68,2.45,4.03,2.45,6.99v.51Z"/>
      <path class="cls-3" d="M181.33,50.3c-1.63-.59-3.46-1.06-5.42-1.4l-1.98-.34c-1.53-.27-2.77-.68-3.68-1.22-.97-.58-1.46-1.49-1.46-2.72,0-1.15,.5-2.05,1.48-2.69,.95-.61,2.25-.92,3.87-.92s3.08,.37,4.21,1.09c1.09,.69,1.83,1.86,2.2,3.47l4.87-1.37c-.61-2.21-1.87-3.99-3.74-5.3-1.96-1.37-4.49-2.07-7.54-2.07s-5.72,.71-7.62,2.12c-1.87,1.39-2.82,3.37-2.82,5.9,0,1.69,.43,3.1,1.29,4.17,.87,1.09,2.06,1.95,3.56,2.57,1.52,.63,3.23,1.12,5.08,1.45l1.92,.34c1.86,.34,3.3,.79,4.26,1.33,1.03,.58,1.55,1.5,1.55,2.73s-.54,2.22-1.61,2.99c-1.04,.75-2.53,1.12-4.42,1.12-1.27,0-2.47-.19-3.56-.58-1.12-.39-2.06-1.07-2.81-2.01-.7-.88-1.21-2.06-1.52-3.5l-4.88,1.17c.54,2.98,1.93,5.24,4.13,6.73,2.27,1.54,5.18,2.32,8.64,2.32s6.17-.76,8.18-2.26c1.99-1.48,2.99-3.59,2.99-6.26,0-1.8-.46-3.26-1.37-4.33-.92-1.08-2.2-1.93-3.8-2.51Z"/>
      <path class="cls-3" d="M242.25,38.49c-1.89-1.1-3.99-1.65-6.26-1.65-2.64,0-4.68,.48-6.08,1.42-1.41,.95-2.47,2.04-3.16,3.24l-.08,.14h-1.34v-4.01h-5.14v38.54h5.25v-15.06h1.34l.08,.14c.44,.73,1.03,1.44,1.76,2.11,.72,.67,1.7,1.23,2.9,1.66,1.2,.44,2.71,.66,4.48,.66,2.27,0,4.39-.56,6.29-1.66,1.9-1.1,3.44-2.7,4.58-4.77,1.14-2.07,1.71-4.62,1.71-7.57v-.85c0-2.95-.59-5.49-1.74-7.57-1.15-2.07-2.7-3.68-4.58-4.77Zm1.01,13.02c0,3.07-.84,5.47-2.51,7.14-1.66,1.66-3.84,2.51-6.46,2.51s-4.69-.84-6.37-2.51c-1.68-1.66-2.54-4.06-2.54-7.14v-.51c0-3.03,.85-5.42,2.54-7.08,1.68-1.66,3.83-2.51,6.37-2.51s4.75,.84,6.43,2.51c1.68,1.66,2.54,4.05,2.54,7.08v.51Z"/>
      <g>
        <path class="cls-3" d="M255.96,25.94c-1.06,0-1.93,.34-2.66,1.02-.72,.69-1.07,1.55-1.07,2.65s.35,1.96,1.07,2.65c.72,.69,1.59,1.02,2.66,1.02s1.98-.33,2.68-1.02c.7-.69,1.04-1.55,1.04-2.65s-.34-1.96-1.04-2.65c-.71-.69-1.58-1.02-2.68-1.02Z"/>
        <rect class="cls-3" x="253.3" y="37.62" width="5.25" height="27.26"/>
      </g>
      <path class="cls-3" d="M283.77,38.57c-1.96-1.15-4.27-1.74-6.88-1.74s-5.08,.59-7.11,1.74c-2.03,1.15-3.64,2.81-4.77,4.91-1.14,2.11-1.72,4.62-1.72,7.45v.68c0,2.8,.59,5.29,1.74,7.4,1.15,2.11,2.78,3.76,4.83,4.91,2.05,1.16,4.49,1.74,7.25,1.74,2.47,0,4.51-.39,6.08-1.16,1.58-.77,2.87-1.74,3.83-2.86,.9-1.05,1.61-2.07,2.12-3.03l-4.3-2.22c-.61,1.2-1.45,2.28-2.51,3.22-1.15,1.02-2.88,1.54-5.12,1.54-2.39,0-4.42-.76-6.03-2.25-1.61-1.49-2.47-3.52-2.54-6.03v-.29s21.38,0,21.38,0v-1.92c0-2.76-.56-5.2-1.66-7.26-1.1-2.05-2.65-3.68-4.61-4.83Zm-15.1,10.11l.05-.32c.31-2.17,1.19-3.88,2.6-5.11,1.42-1.22,3.27-1.85,5.51-1.85s4.09,.62,5.49,1.85c1.4,1.23,2.2,2.95,2.35,5.13l.02,.3h-16.02Z"/>
      <path class="cls-3" d="M315.43,38.54c-1.59-.91-3.43-1.37-5.48-1.37-2.6,0-4.57,.48-5.87,1.41-1.31,.95-2.23,1.97-2.73,3.05l-.07,.16h-1.36v-4.18h-5.14v27.26h5.25v-13.77c0-3.07,.76-5.45,2.25-7.07,1.5-1.63,3.51-2.46,5.99-2.46,2.17,0,3.9,.6,5.16,1.8,1.25,1.2,1.89,3.06,1.89,5.53v15.97h5.25v-16.42c0-2.35-.46-4.38-1.38-6.04-.91-1.66-2.18-2.96-3.76-3.87Z"/>
      <path class="cls-3" d="M347.29,52.81c-.92-1.08-2.2-1.93-3.8-2.51-1.63-.59-3.46-1.06-5.42-1.4l-1.98-.34c-1.53-.27-2.77-.68-3.68-1.22-.97-.58-1.46-1.49-1.46-2.72,0-1.15,.5-2.05,1.48-2.69,.95-.61,2.25-.92,3.87-.92s3.08,.37,4.21,1.09c1.09,.69,1.83,1.86,2.2,3.47l4.87-1.37c-.61-2.21-1.87-3.99-3.74-5.3-1.96-1.37-4.49-2.07-7.54-2.07s-5.72,.71-7.62,2.12c-1.87,1.39-2.82,3.37-2.82,5.9,0,1.69,.43,3.1,1.29,4.17,.87,1.09,2.07,1.95,3.56,2.57,1.51,.63,3.22,1.12,5.08,1.45l1.92,.34c1.87,.34,3.3,.79,4.26,1.33,1.03,.58,1.55,1.5,1.55,2.73s-.54,2.22-1.61,2.99c-1.04,.75-2.53,1.12-4.42,1.12-1.27,0-2.47-.19-3.56-.58-1.12-.39-2.06-1.07-2.81-2.01-.69-.88-1.21-2.05-1.52-3.5l-4.88,1.17c.54,2.98,1.93,5.24,4.13,6.73,2.27,1.54,5.18,2.32,8.64,2.32s6.17-.76,8.18-2.26c1.99-1.48,2.99-3.59,2.99-6.26,0-1.8-.46-3.26-1.37-4.33Z"/>
      <path class="cls-3" d="M214.68,58.61v-11.45c0-3.29-1.01-5.85-3.01-7.63-2.01-1.79-4.81-2.69-8.33-2.69-2.28,0-4.25,.37-5.87,1.1-1.61,.73-2.91,1.7-3.88,2.88-.91,1.12-1.6,2.37-2.04,3.73l4.87,1.57c.37-1.42,1.08-2.6,2.1-3.52,1.1-.98,2.7-1.48,4.76-1.48s3.68,.52,4.71,1.55c1.03,1.03,1.55,2.4,1.55,4.09v2.08h-8.74c-1.99,0-3.78,.32-5.34,.94-1.54,.62-2.77,1.54-3.66,2.75-.88,1.21-1.33,2.76-1.33,4.6s.45,3.37,1.33,4.64c.89,1.27,2.1,2.24,3.61,2.89,1.52,.66,3.27,.99,5.22,.99s3.38-.27,4.51-.79c1.12-.52,1.98-1.15,2.55-1.87,.59-.73,1.03-1.39,1.33-1.93l.08-.15h1.29v3.95h4.29v-6.27Zm-5.14-4.96c0,2.4-.75,4.32-2.23,5.7-1.48,1.38-3.44,2.08-5.83,2.08-1.75,0-3.15-.4-4.18-1.19-1.05-.8-1.58-1.9-1.58-3.27s.51-2.42,1.53-3.13c.98-.69,2.29-1.04,3.88-1.04h8.4v.84Z"/>
    </g>
    <g>
      <path class="cls-3" d="M354.68,35.57v-4.09h1.72c.25,0,.48,.04,.67,.13,.19,.09,.34,.21,.45,.38,.11,.16,.16,.36,.16,.58v.06c0,.26-.06,.46-.18,.62-.12,.15-.27,.26-.45,.32v.09c.15,0,.27,.06,.36,.15,.09,.09,.13,.22,.13,.39v1.35h-.64v-1.27c0-.11-.03-.19-.08-.25-.05-.06-.14-.09-.26-.09h-1.24v1.61h-.63Zm.63-2.18h1.02c.23,0,.4-.06,.53-.17,.12-.11,.19-.27,.19-.47v-.05c0-.2-.06-.36-.18-.47-.12-.11-.3-.17-.53-.17h-1.02v1.33Z"/>
      <path class="cls-3" d="M356.17,37.61c-2.25,0-4.09-1.83-4.09-4.09s1.83-4.09,4.09-4.09,4.09,1.83,4.09,4.09-1.83,4.09-4.09,4.09Zm0-7.72c-2,0-3.63,1.63-3.63,3.63s1.63,3.63,3.63,3.63,3.63-1.63,3.63-3.63-1.63-3.63-3.63-3.63Z"/>
    </g>
  </g>
</svg>