<svg width="40" height="40" viewBox="0 0 40 40" fill="none" xmlns="http://www.w3.org/2000/svg">
<path fill-rule="evenodd" clip-rule="evenodd" d="M21 11.4167H19C16.7909 11.4167 15 13.2075 15 15.4167V23.25C15 25.4591 16.7909 27.25 19 27.25H21C23.2091 27.25 25 25.4591 25 23.25V15.4167C25 13.2075 23.2091 11.4167 21 11.4167ZM19 9.41667C15.6863 9.41667 13 12.103 13 15.4167V23.25C13 26.5637 15.6863 29.25 19 29.25H21C24.3137 29.25 27 26.5637 27 23.25V15.4167C27 12.103 24.3137 9.41667 21 9.41667H19Z" fill="black"/>
<path d="M20 16.25C20 15.6977 20.4477 15.25 21 15.25H24.8333C25.3856 15.25 25.8333 15.6977 25.8333 16.25V16.5833C25.8333 17.1356 25.3856 17.5833 24.8333 17.5833H21C20.4477 17.5833 20 17.1356 20 16.5833V16.25Z" fill="black"/>
<path d="M20 19.75C20 19.1977 20.4477 18.75 21 18.75H24.8333C25.3856 18.75 25.8333 19.1977 25.8333 19.75V20.0833C25.8333 20.6356 25.3856 21.0833 24.8333 21.0833H21C20.4477 21.0833 20 20.6356 20 20.0833V19.75Z" fill="black"/>
<path d="M20 23.25C20 22.6977 20.4477 22.25 21 22.25H24.8333C25.3856 22.25 25.8333 22.6977 25.8333 23.25V23.5833C25.8333 24.1356 25.3856 24.5833 24.8333 24.5833H21C20.4477 24.5833 20 24.1356 20 23.5833V23.25Z" fill="black"/>
<path d="M20.1665 28.0833C20.7188 28.0833 21.1665 28.5311 21.1665 29.0833L21.1665 30.5833C21.1665 31.1356 20.7188 31.5833 20.1665 31.5833L19.8332 31.5833C19.2809 31.5833 18.8332 31.1356 18.8332 30.5833L18.8332 29.0833C18.8332 28.5311 19.2809 28.0833 19.8332 28.0833L20.1665 28.0833Z" fill="black"/>
</svg>
