<svg width="40" height="40" viewBox="0 0 40 40" fill="none" xmlns="http://www.w3.org/2000/svg">
<path fill-rule="evenodd" clip-rule="evenodd" d="M16.7694 17C16.7694 15.8954 17.6648 15 18.7694 15H20.2309C21.3355 15 22.2309 15.8954 22.2309 17V21.4074L26.7684 23.3175C27.5059 23.6279 28.0308 24.376 27.9703 25.2417C27.8168 27.4391 27.0905 29.5455 25.9546 31.1436C24.8238 32.7344 23.2062 33.9196 21.272 33.9992L21.2515 34H18.4931C17.6177 34 16.8864 33.4374 16.5935 32.6775C15.8244 30.6823 14.694 29.315 12.0866 27.0928C11.2834 26.4083 11.1321 25.2038 11.7841 24.346L12.2136 23.7811C13.2663 22.3963 15.2722 22.1942 16.5799 23.3411L16.7694 23.5072V17ZM20.2309 17L18.7694 17V24.6108C18.7694 25.9003 17.2499 26.5888 16.2804 25.7385L15.2612 24.8448C14.8253 24.4625 14.1567 24.5298 13.8058 24.9914L13.3767 25.5559C13.3767 25.5564 13.3767 25.557 13.3768 25.5578C13.3771 25.5603 13.3778 25.5627 13.3789 25.5647C13.3796 25.5661 13.3809 25.568 13.3839 25.5706C16.0919 27.8785 17.5148 29.5071 18.4596 31.9581C18.4671 31.9774 18.4786 31.99 18.4874 31.9963C18.49 31.9981 18.4919 31.9991 18.493 31.9997C18.4934 31.9998 18.4928 31.9996 18.493 31.9997L21.2089 32C22.3196 31.947 23.4233 31.2526 24.3244 29.9849C25.2175 28.7284 25.8335 27.0032 25.9716 25.152L21.455 23.2507C20.7132 22.9385 20.2309 22.2121 20.2309 21.4074L20.2309 17Z" fill="black"/>
<path fill-rule="evenodd" clip-rule="evenodd" d="M13 10C13 8.89543 13.8954 8 15 8H24C25.1046 8 26 8.89543 26 10V19C26 19.5523 25.5523 20 25 20C24.4477 20 24 19.5523 24 19V10L15 10V19C15 19.5523 14.5523 20 14 20C13.4477 20 13 19.5523 13 19V10Z" fill="black"/>
</svg>
