<?xml version="1.0" encoding="UTF-8" standalone="no"?>
<svg
   xmlns:dc="http://purl.org/dc/elements/1.1/"
   xmlns:cc="http://creativecommons.org/ns#"
   xmlns:rdf="http://www.w3.org/1999/02/22-rdf-syntax-ns#"
   xmlns:svg="http://www.w3.org/2000/svg"
   xmlns="http://www.w3.org/2000/svg"
   viewBox="0 0 755.90668 177.64"
   height="177.64"
   width="755.90668"
   xml:space="preserve"
   id="svg2"
   version="1.1"><metadata
     id="metadata8"><rdf:RDF><cc:Work
         rdf:about=""><dc:format>image/svg+xml</dc:format><dc:type
           rdf:resource="http://purl.org/dc/dcmitype/StillImage" /></cc:Work></rdf:RDF></metadata><defs
     id="defs6" /><g
     transform="matrix(1.3333333,0,0,-1.3333333,0,177.64)"
     id="g10"><g
       transform="scale(0.1)"
       id="g12"><path
         id="path14"
         style="fill:#f25c19;fill-opacity:1;fill-rule:nonzero;stroke:none"
         d="m 3483.03,335.551 c 0,80 -54.77,122.988 -139.83,122.988 -138.14,0 -209.73,-112.891 -209.73,-236.707 0,-126.3632 57.26,-215.64059 200.46,-215.64059 85.1,0 144.05,38.74999 154.15,47.16019 l -33.71,78.3204 c -23.56,-15.953 -59.77,-36.2032 -105.25,-36.2032 -64.05,0 -91.02,42.9922 -96.88,83.3832 101.93,4.23 230.79,29.519 230.79,156.699 m -102.76,-0.867 c 0,-58.082 -78.37,-71.594 -133.08,-73.286 2.5,58.141 32.83,114.582 90.1,114.582 26.11,0 42.98,-16.003 42.98,-41.296" /><path
         id="path16"
         style="fill:#f25c19;fill-opacity:1;fill-rule:nonzero;stroke:none"
         d="m 3891.55,335.551 c 0,80 -54.76,122.988 -139.82,122.988 -138.14,0 -209.73,-112.891 -209.73,-236.707 0,-126.3632 57.27,-215.64059 200.45,-215.64059 85.11,0 144.05,38.74999 154.15,47.16019 l -33.7,78.3204 c -23.56,-15.953 -59.77,-36.2032 -105.25,-36.2032 -64.05,0 -90.97,42.9922 -96.89,83.3832 101.94,4.23 230.79,29.519 230.79,156.699 m -102.74,-0.867 c 0,-58.082 -78.38,-71.594 -133.1,-73.286 2.5,58.141 32.84,114.582 90.11,114.582 26.1,0 42.99,-16.003 42.99,-41.296" /><path
         id="path18"
         style="fill:#f25c19;fill-opacity:1;fill-rule:nonzero;stroke:none"
         d="m 852.457,335.551 c 0,80 -54.766,122.988 -139.824,122.988 -138.141,0 -209.738,-112.891 -209.738,-236.707 0,-126.3632 57.265,-215.64059 200.457,-215.64059 85.105,0 144.054,38.74999 154.148,47.16019 L 823.793,131.672 C 800.234,115.719 764.027,95.4688 718.547,95.4688 c -64.051,0 -91.024,42.9922 -96.887,83.3832 101.934,4.23 230.797,29.519 230.797,156.699 m -102.754,-0.867 c 0,-58.082 -78.375,-71.594 -133.094,-73.286 2.5,58.141 32.84,114.582 90.106,114.582 26.113,0 42.988,-16.003 42.988,-41.296" /><path
         id="path20"
         style="fill:#f25c19;fill-opacity:1;fill-rule:nonzero;stroke:none"
         d="M 292.289,578.969 V 355.777 H 120.445 V 578.969 H 0 V 18.8086 H 120.445 V 250.469 H 292.289 V 18.8086 H 412.781 V 578.969 H 292.289" /><path
         id="path22"
         style="fill:#f25c19;fill-opacity:1;fill-rule:nonzero;stroke:none"
         d="m 1306.47,18.8203 -8.42,85.0587 v 323.5 c -64.04,23.562 -126.36,31.16 -155.01,31.16 -149.056,0 -223.2,-96.883 -223.2,-245.129 0,-113.7108 41.254,-206.35922 163.38,-206.35922 45.53,0 87.61,16.82032 112.9,55.57812 l 4.23,-0.8672 5.87,-42.9414 z M 1181.79,155.281 c 0,-31.152 -25.24,-63.1794 -69.05,-63.1794 -62.36,0 -76.69,59.8204 -76.69,128.0394 0,82.558 23.61,151.613 92.7,151.613 21.88,0 42.08,-4.191 53.04,-9.238 V 155.281" /><path
         id="path24"
         style="fill:#f25c19;fill-opacity:1;fill-rule:nonzero;stroke:none"
         d="m 1404.17,578.141 v -432.11 c 0,-70.781 6.74,-139.82006 128.05,-139.82006 37.07,0 81.69,10.89846 106.98,26.91796 L 1613.91,111.5 c -18.51,-7.59 -36.2,-13.5117 -51.35,-13.5117 -31.21,0 -41.31,18.5627 -41.31,64.8707 v 415.282 h -117.08" /><path
         id="path26"
         style="fill:#f25c19;fill-opacity:1;fill-rule:nonzero;stroke:none"
         d="M 2134.47,18.8203 V 294.289 c 0,39.574 28.66,74.094 71.59,74.094 44.67,0 53.9,-33.66 53.9,-77.461 V 18.8203 h 117.08 V 308.57 c 0,100.254 -47.99,149.969 -136.45,149.969 -41.26,0 -79.15,-15.144 -106.12,-43.809 V 578.98 H 2017.39 V 18.8203 h 117.08" /><path
         id="path28"
         style="fill:#f25c19;fill-opacity:1;fill-rule:nonzero;stroke:none"
         d="m 2480.63,18.8203 c 37.7,0 58.54,0 58.54,0 0,0 18.33,0 58.54,0 0,140.1287 0,213.5317 0,213.5317 0,0 0,89.097 0,213.531 -41.04,0 -58.54,0 -58.54,0 0,0 -17.5,0 -58.54,0 0,-127.184 0,-213.531 0,-213.531 0,0 0,-72.571 0,-213.5317" /><path
         id="path30"
         style="fill:#f25c19;fill-opacity:1;fill-rule:nonzero;stroke:none"
         d="m 2475.25,579.352 c 0,-17.747 6.19,-32.805 17.23,-43.438 11.04,-10.625 26.93,-16.816 46.33,-16.816 18.97,0 35.06,6.191 46.4,16.816 11.34,10.633 17.93,25.691 17.93,43.438 0,16.511 -6.59,31.57 -17.93,42.507 -11.34,10.93 -27.43,17.735 -46.4,17.735 -18.99,0 -34.88,-6.805 -46.02,-17.735 -11.14,-10.937 -17.54,-25.996 -17.54,-42.507" /><path
         id="path32"
         style="fill:#f25c19;fill-opacity:1;fill-rule:nonzero;stroke:none"
         d="M 2818.43,18.8203 V 292.602 c 0,40.441 28.66,75.781 73.28,75.781 44.67,0 52.22,-34.52 52.22,-80.832 V 18.8203 h 117.08 V 310.301 c 0,101.07 -50.54,148.238 -133.91,148.238 -56.46,0 -98.57,-23.613 -127.18,-63.184 l -8.46,50.54 h -97.71 l 7.6,-79.192 V 18.8203 h 117.08" /><path
         id="path34"
         style="fill:#f25c19;fill-opacity:1;fill-rule:nonzero;stroke:none"
         d="m 4099.61,284.16 c 1.68,44.621 28.65,73.285 70.77,73.285 21.89,0 42.13,-5.867 59.77,-15.144 l 21.06,101.062 c -20.19,10.969 -46.3,15.149 -69.91,15.149 -39.57,0 -80.83,-23.555 -101.07,-73.274 l -10.96,60.676 h -95.16 l 8.42,-74.141 V 18.8516 h 117.08 V 284.16" /><path
         id="path36"
         style="fill:#f25c19;fill-opacity:1;fill-rule:nonzero;stroke:none"
         d="m 4574.07,421.422 0.33,1.004 c -37.31,24.375 -86.16,39.094 -139.48,36.301 -86.55,-4.512 -154.59,-56.106 -149.87,-145.258 4.66,-89.239 69.72,-110.297 133.71,-125.5 36.74,-9.028 67.46,-15.899 69.19,-48.699 1.69,-32.02 -20.38,-45.8208 -51.49,-47.4614 -38.08,-1.9688 -86.22,14.9534 -117.27,30.9214 l -34.91,-80.2886 c 24.57,-16.4531 87.94,-39.92187 162.57,-36.01952 97.46,5.09762 161.26,56.44922 156.3,151.54712 -4.61,87.511 -74.61,106.652 -136.98,122.812 -38.46,9.758 -66.79,19.27 -68.51,52.067 -1.45,27.793 20.67,39.91 48.46,41.406 28.75,1.484 59.72,-11.113 92.61,-34.141 l 35.34,81.309" /><path
         id="path38"
         style="fill:#f25c19;fill-opacity:1;fill-rule:nonzero;stroke:none"
         d="m 1810.18,354.078 h 110.35 v 91.836 H 1810.18 V 579.008 H 1693.1 V 445.863 h -64.96 v -91.836 h 64.96 V 146.031 c 0,-70.781 6.73,-139.82006 128.04,-139.82006 37.07,0 81.69,10.89846 106.98,26.91796 L 1902.83,111.5 c -18.51,-7.59 -36.2,-13.5117 -51.4,-13.5117 -31.16,0 -41.25,18.5627 -41.25,64.8707 v 191.219" /><path
         id="path40"
         style="fill:#f25c19;fill-opacity:1;fill-rule:nonzero;stroke:none"
         d="m 5464.33,561.02 c 21.82,-21.836 50.43,-32.743 79.02,-32.743 28.59,0 57.2,10.907 79.02,32.743 21.83,21.828 32.75,50.421 32.75,79.023 0,28.594 -10.92,57.191 -32.75,79.023 -21.82,21.829 -50.43,32.739 -79.02,32.739 -28.59,0 -57.2,-10.91 -79.02,-32.739 -21.83,-21.832 -32.75,-50.429 -32.75,-79.023 0,-28.602 10.92,-57.195 32.75,-79.023" /><path
         id="path42"
         style="fill:#f25c19;fill-opacity:1;fill-rule:nonzero;stroke:none"
         d="m 5276.88,373.559 c 16.77,-16.778 38.77,-25.164 60.78,-25.164 22,0 44.01,8.386 60.82,25.164 16.77,16.789 25.16,38.781 25.16,60.781 -0.01,21.992 -8.41,43.996 -25.21,60.773 -16.79,16.805 -38.78,25.203 -60.78,25.215 -22,0.008 -44,-8.39 -60.77,-25.168 -16.78,-16.805 -25.18,-38.816 -25.18,-60.82 0,-22 8.4,-43.992 25.18,-60.781" /><path
         id="path44"
         style="fill:#f25c19;fill-opacity:1;fill-rule:nonzero;stroke:none"
         d="m 5277.1,784.734 c 16.78,-16.781 38.77,-25.168 60.78,-25.168 22,0 44.01,8.387 60.81,25.168 16.79,16.786 25.18,38.782 25.17,60.778 0,22 -8.41,43.996 -25.22,60.777 -16.77,16.801 -38.77,25.203 -60.77,25.211 -22,0.004 -43.99,-8.387 -60.77,-25.168 -16.79,-16.801 -25.18,-38.812 -25.18,-60.816 0,-22 8.39,-43.996 25.18,-60.782" /><path
         id="path46"
         style="fill:#f25c19;fill-opacity:1;fill-rule:nonzero;stroke:none"
         d="m 5085.2,181.891 c 12.91,-12.911 29.84,-19.371 46.76,-19.371 16.93,0 33.85,6.46 46.76,19.371 12.91,12.91 19.37,29.828 19.37,46.757 0,16.922 -6.46,33.84 -19.37,46.75 -12.91,12.922 -29.83,19.372 -46.76,19.372 -16.92,0 -33.85,-6.45 -46.76,-19.372 -12.91,-12.91 -19.37,-29.828 -19.37,-46.75 0,-16.929 6.46,-33.847 19.37,-46.757" /><path
         id="path48"
         style="fill:#f25c19;fill-opacity:1;fill-rule:nonzero;stroke:none"
         d="m 5085.43,593.063 c 12.91,-12.911 29.83,-19.356 46.76,-19.356 16.92,0 33.85,6.445 46.76,19.356 12.91,12.91 19.36,29.832 19.36,46.765 0,16.922 -6.45,33.848 -19.36,46.758 -12.91,12.91 -29.84,19.367 -46.76,19.367 -16.93,0 -33.85,-6.457 -46.76,-19.367 -12.91,-12.91 -19.37,-29.836 -19.37,-46.758 0,-16.933 6.46,-33.855 19.37,-46.765" /><path
         id="path50"
         style="fill:#f25c19;fill-opacity:1;fill-rule:nonzero;stroke:none"
         d="m 5085.66,1004.23 c 12.91,-12.917 29.84,-19.371 46.76,-19.371 16.93,0 33.85,6.454 46.76,19.371 12.91,12.9 19.36,29.83 19.36,46.75 0,16.93 -6.45,33.86 -19.36,46.76 -12.91,12.91 -29.83,19.37 -46.76,19.37 -16.92,0 -33.85,-6.46 -46.76,-19.37 -12.91,-12.9 -19.36,-29.83 -19.36,-46.76 0,-16.92 6.45,-33.85 19.36,-46.75" /><path
         id="path52"
         style="fill:#f25c19;fill-opacity:1;fill-rule:nonzero;stroke:none"
         d="m 4890.52,398.148 c 9.92,-9.929 22.95,-14.89 35.96,-14.89 13.02,0 26.04,4.961 35.97,14.89 9.92,9.934 14.89,22.95 14.89,35.969 0,13.016 -4.97,26.035 -14.89,35.965 -9.93,9.934 -22.95,14.895 -35.97,14.895 -13.01,0 -26.04,-4.961 -35.96,-14.895 -9.93,-9.93 -14.89,-22.949 -14.89,-35.965 0,-13.019 4.96,-26.035 14.89,-35.969" /><path
         id="path54"
         style="fill:#f25c19;fill-opacity:1;fill-rule:nonzero;stroke:none"
         d="m 4890.74,809.316 c 9.93,-9.929 22.95,-14.89 35.97,-14.89 13.02,0 26.03,4.961 35.97,14.89 9.93,9.926 14.89,22.946 14.89,35.961 0,13.024 -4.96,26.039 -14.89,35.969 -9.94,9.93 -22.95,14.891 -35.97,14.891 -13.02,0 -26.04,-4.961 -35.97,-14.891 -9.92,-9.93 -14.89,-22.945 -14.89,-35.969 0,-13.015 4.97,-26.035 14.89,-35.961" /><path
         id="path56"
         style="fill:#f25c19;fill-opacity:1;fill-rule:nonzero;stroke:none"
         d="m 4693.35,611.918 c 7.65,-7.645 17.66,-11.465 27.68,-11.465 10.01,0 20.01,3.82 27.66,11.465 7.65,7.648 11.47,17.656 11.47,27.676 0,10.011 -3.82,20.019 -11.47,27.668 -7.65,7.644 -17.65,11.468 -27.66,11.468 -10.02,0 -20.03,-3.824 -27.68,-11.468 -7.65,-7.649 -11.47,-17.657 -11.47,-27.668 0,-10.02 3.82,-20.028 11.47,-27.676" /><path
         id="path58"
         style="fill:#00aaaf;fill-opacity:1;fill-rule:nonzero;stroke:none"
         d="m 1404.55,843 v 96.547 c 54.91,-17.313 103.52,-25.969 145.83,-25.969 58.37,0 87.55,15.434 87.55,46.258 0,11.543 -4.27,21.156 -12.73,28.992 -8.75,8.32 -31.02,19.812 -66.89,34.532 -64.28,26.44 -106.26,48.99 -125.78,67.65 -25.24,24.61 -37.89,55.67 -37.89,93.23 0,48.27 18.42,85.1 55.25,110.39 36.39,25.1 83.81,37.65 142.27,37.65 32.22,0 78.86,-5.91 139.83,-17.79 v -92.85 c -45.34,18.13 -87.51,27.17 -126.41,27.17 -54.82,0 -82.22,-15.05 -82.22,-45.25 0,-11.25 5.53,-20.43 16.59,-27.59 9.18,-5.73 34.52,-17.94 75.92,-36.59 59.62,-26.45 99.34,-49.48 119.1,-69.05 23.46,-23.28 35.24,-53.28 35.24,-90.154 0,-52.942 -23.03,-93.324 -69.09,-121.168 -37.27,-22.555 -85.64,-33.805 -145.02,-33.805 -50.15,0 -100.68,5.914 -151.55,17.797" /><path
         id="path60"
         style="fill:#00aaaf;fill-opacity:1;fill-rule:nonzero;stroke:none"
         d="m 1847.29,835.113 c 49.38,0 68.25,0 68.25,0 0,0 19.46,0 68.26,0 0,156.332 0,244.347 0,244.347 0,0 0,88.65 0,244.36 -52.97,0 -68.26,0 -68.26,0 0,0 -14.71,0 -68.25,0 0,-159.04 0,-244.36 0,-244.36 0,0 0,-88.847 0,-244.347" /><path
         id="path62"
         style="fill:#00aaaf;fill-opacity:1;fill-rule:nonzero;stroke:none"
         d="M 2108.97,1323.8 V 835.098 h 355.71 v 93.375 h -224.15 v 115.977 h 190.21 v 80.59 h -190.21 v 110.34 h 218.53 v 88.42 h -350.09" /><path
         id="path64"
         style="fill:#00aaaf;fill-opacity:1;fill-rule:nonzero;stroke:none"
         d="M 2979.81,1323.8 2853.75,1011.56 2730.8,1323.8 H 2553.81 V 835.098 h 96.17 v 345.992 l 140.54,-350.945 h 84.68 l 143.33,350.945 V 835.098 h 129.38 V 1323.8 h -168.1" /><path
         id="path66"
         style="fill:#00aaaf;fill-opacity:1;fill-rule:nonzero;stroke:none"
         d="M 3273.09,1323.8 V 835.098 h 355.76 v 93.375 h -224.21 v 115.977 h 190.26 v 80.59 h -190.26 v 110.34 h 218.53 v 88.42 h -350.08" /><path
         id="path68"
         style="fill:#00aaaf;fill-opacity:1;fill-rule:nonzero;stroke:none"
         d="M 4044.71,1323.8 V 996.656 L 3876.89,1323.8 H 3718.66 V 835.098 h 96.16 v 331.522 l 172.33,-331.522 h 153.72 V 1323.8 h -96.16" /><path
         id="path70"
         style="fill:#00aaaf;fill-opacity:1;fill-rule:nonzero;stroke:none"
         d="m 4237.76,843 v 96.547 c 54.44,-17.313 103.1,-25.969 145.84,-25.969 58.37,0 87.56,15.434 87.56,46.258 0,11.543 -4.14,21.156 -12.41,28.992 -8.7,8.32 -31.1,19.812 -67.17,34.532 -64.09,26.25 -106.11,48.8 -125.78,67.65 -25.29,24.42 -37.94,55.58 -37.94,93.56 0,48.09 18.37,84.77 55.25,110.06 36.34,25.1 83.8,37.65 142.32,37.65 32.84,0 75.44,-5.24 127.7,-15.72 l 12.08,-2.07 v -92.85 c -45.4,18.13 -87.61,27.17 -126.75,27.17 -54.57,0 -81.84,-15.05 -81.84,-45.25 0,-11.25 5.49,-20.43 16.5,-27.59 8.75,-5.49 34.23,-17.7 76.3,-36.59 59.19,-26.45 98.81,-49.48 118.76,-69.05 23.52,-23.28 35.25,-53.28 35.25,-90.154 0,-52.942 -22.93,-93.324 -68.7,-121.168 -37.51,-22.555 -86.03,-33.805 -145.36,-33.805 -50.2,0 -100.78,5.914 -151.61,17.797" /></g></g></svg>