<svg width="310" height="76" viewBox="0 0 310 76" fill="none" xmlns="http://www.w3.org/2000/svg">
<g clip-path="url(#clip0_357_1435)">
<path d="M257.278 41.0273C257.477 41.2269 257.714 41.3853 257.974 41.4933C258.234 41.6014 258.513 41.657 258.795 41.657C259.077 41.657 259.356 41.6014 259.616 41.4933C259.876 41.3853 260.112 41.2269 260.311 41.0273C260.732 40.61 260.939 40.0612 260.939 39.5107C260.939 38.9637 260.732 38.4149 260.311 37.9941C260.113 37.795 259.876 37.6371 259.616 37.5297C259.356 37.4222 259.077 37.3674 258.796 37.3682C258.372 37.3684 257.957 37.4942 257.605 37.7298C257.252 37.9653 256.977 38.2999 256.815 38.6915C256.652 39.083 256.61 39.5139 256.692 39.9296C256.775 40.3453 256.979 40.7273 257.278 41.0273V41.0273ZM268.1 30.2132C268.488 30.6059 268.985 30.874 269.527 30.9833C270.069 31.0925 270.631 31.0379 271.141 30.8264C271.652 30.6149 272.088 30.2561 272.393 29.7959C272.699 29.3357 272.86 28.7948 272.857 28.2425C272.857 27.5038 272.563 26.7955 272.041 26.2732C271.518 25.7509 270.81 25.4574 270.071 25.4574C269.332 25.4574 268.623 25.7509 268.1 26.2732C267.578 26.7955 267.284 27.5038 267.284 28.2425C267.284 28.9543 267.556 29.6696 268.1 30.2132ZM268.086 52.7391C268.474 53.1325 268.971 53.4011 269.513 53.5107C270.055 53.6203 270.618 53.5658 271.129 53.3543C271.64 53.1427 272.076 52.7837 272.381 52.323C272.687 51.8624 272.848 51.3212 272.845 50.7684C272.845 50.0549 272.573 49.343 272.027 48.7995C271.638 48.4085 271.141 48.1419 270.6 48.0337C270.059 47.9254 269.498 47.9804 268.988 48.1916C268.478 48.4028 268.043 48.7607 267.737 49.2198C267.431 49.6789 267.268 50.2186 267.27 50.7702C267.27 51.482 267.542 52.1956 268.086 52.7391ZM278.783 19.5323C279.49 20.2406 280.417 20.5947 281.345 20.5947C282.273 20.5947 283.2 20.2406 283.908 19.534C284.617 18.8275 284.97 17.8982 284.97 16.9707C284.97 16.0433 284.617 15.1175 283.908 14.411C283.572 14.0739 283.173 13.8065 282.733 13.624C282.293 13.4416 281.822 13.3477 281.345 13.3477C280.869 13.3477 280.398 13.4416 279.958 13.624C279.518 13.8065 279.119 14.0739 278.783 14.411C278.074 15.1175 277.721 16.045 277.721 16.9707C277.721 17.8965 278.074 18.8257 278.783 19.534V19.5323ZM278.769 42.06C279.476 42.7683 280.403 43.1207 281.331 43.1207C282.259 43.1207 283.186 42.77 283.894 42.06C284.603 41.3499 284.956 40.4259 284.956 39.5002C284.956 38.5745 284.603 37.6452 283.894 36.9369C283.186 36.2286 282.259 35.8762 281.331 35.8762C280.403 35.8762 279.476 36.2286 278.769 36.9369C278.431 37.2729 278.164 37.6722 277.981 38.1117C277.799 38.5513 277.705 39.0225 277.705 39.4985C277.705 39.9744 277.799 40.4456 277.981 40.8852C278.164 41.3247 278.431 41.724 278.769 42.06V42.06ZM278.756 64.5894C279.463 65.296 280.391 65.6502 281.319 65.6502C282.247 65.6502 283.173 65.296 283.882 64.5894C284.591 63.8829 284.943 62.9536 284.943 62.0262C284.943 61.0987 284.591 60.173 283.882 59.4664C283.546 59.1293 283.146 58.8619 282.707 58.6795C282.267 58.497 281.795 58.4031 281.319 58.4031C280.843 58.4031 280.371 58.497 279.932 58.6795C279.492 58.8619 279.092 59.1293 278.756 59.4664C278.048 60.173 277.695 61.1004 277.695 62.0262C277.695 62.9519 278.048 63.8811 278.756 64.5894V64.5894ZM289.276 31.5579C289.712 31.9961 290.231 32.3437 290.803 32.5805C291.374 32.8173 291.987 32.9387 292.605 32.9377C293.816 32.9377 295.021 32.4801 295.942 31.5597C296.859 30.641 297.321 29.4347 297.321 28.2285C297.321 27.0222 296.859 25.8195 295.938 24.8973C295.017 23.975 293.812 23.5174 292.605 23.5174C291.399 23.5174 290.193 23.9785 289.276 24.8973C288.837 25.3341 288.489 25.8533 288.252 26.425C288.015 26.9967 287.893 27.6096 287.894 28.2285C287.894 29.4347 288.355 30.641 289.276 31.5597V31.5579ZM289.265 54.0874C289.702 54.5253 290.221 54.8725 290.792 55.109C291.364 55.3455 291.976 55.4666 292.595 55.4654C293.805 55.4654 295.01 55.0078 295.931 54.0874C296.849 53.1669 297.31 51.9642 297.31 50.7579C297.31 49.5517 296.849 48.3472 295.928 47.4267C295.007 46.5063 293.802 46.0469 292.595 46.0469C291.388 46.0469 290.183 46.5027 289.265 47.425C288.827 47.8618 288.479 48.381 288.242 48.9527C288.005 49.5244 287.883 50.1373 287.883 50.7562C287.883 51.9642 288.345 53.1669 289.265 54.0874V54.0874ZM299.54 43.8167C300.108 44.3867 300.783 44.8388 301.527 45.1469C302.27 45.4551 303.067 45.6131 303.872 45.6121C305.441 45.6121 307.007 45.0125 308.205 43.8167C309.403 42.621 310 41.0536 310 39.4862C310 37.9188 309.402 36.3548 308.203 35.1574C307.005 33.9599 305.441 33.362 303.872 33.362C302.302 33.362 300.738 33.9616 299.54 35.1574C298.342 36.3531 297.745 37.9188 297.745 39.4862C297.745 41.0536 298.343 42.6193 299.54 43.8167Z" fill="black"/>
<path d="M232.305 28.366V23.0747C235.288 24.0249 237.955 24.4983 240.3 24.4983C243.498 24.4983 245.099 23.6532 245.099 21.9649C245.099 21.3337 244.871 20.8042 244.419 20.3746C243.942 19.9188 242.714 19.2911 240.735 18.4846C237.223 17.0469 234.918 15.8109 233.841 14.7782C232.455 13.4387 231.761 11.731 231.761 9.65167C231.761 7.01826 232.768 5.00551 234.792 3.62043C236.783 2.24587 239.384 1.55859 242.593 1.55859C244.392 1.55859 246.729 1.84613 249.592 2.41945L250.255 2.53341V7.61963C247.764 6.62729 245.452 6.13286 243.305 6.13286C240.314 6.13286 238.82 6.9569 238.82 8.61023C238.82 9.22738 239.121 9.73232 239.725 10.1233C240.205 10.4231 241.602 11.0911 243.907 12.129C247.152 13.5772 249.325 14.8378 250.416 15.9108C251.706 17.1837 252.351 18.83 252.351 20.8515C252.351 23.7514 251.092 25.9641 248.583 27.4894C246.526 28.7237 243.866 29.3408 240.614 29.3408C237.863 29.3408 235.092 29.0165 232.305 28.366ZM221.72 2.02321V19.9486L212.525 2.02321H203.85V28.7991H209.121V10.6353L218.568 28.7991H226.995V2.02321H221.72ZM179.423 2.02321V28.7991H198.923V23.6848H186.633V17.3292H197.062V12.9127H186.633V6.87099H198.612V2.02321H179.422H179.423ZM163.346 2.02321L156.435 19.1298L149.697 2.02321H139.995V28.7991H145.264V9.84277L152.971 29.0691H157.61L165.467 9.84277V28.7991H172.559V2.02321H163.346ZM115.608 2.02321V28.7991H135.108V23.6848H122.82V17.3292H133.247V12.9127H122.82V6.87099H134.799V2.02321H115.608ZM101.263 28.7973H108.75V2.02146H101.266V15.4094L101.263 28.7973ZM76.994 28.366V23.0747C80.0041 24.0249 82.6687 24.4983 84.9877 24.4983C88.1873 24.4983 89.7889 23.6532 89.7889 21.9649C89.7889 21.3337 89.5538 20.8042 89.0872 20.3746C88.6083 19.9188 87.3892 19.2911 85.421 18.4846C81.8986 17.0347 79.5972 15.7986 78.5271 14.7782C77.1448 13.4282 76.4502 11.7275 76.4502 9.6692C76.4502 7.02352 77.4606 5.00551 79.4796 3.62043C81.4741 2.24587 84.0773 1.55859 87.2769 1.55859C89.0451 1.55859 91.6009 1.88295 94.9426 2.53341V7.61963C92.457 6.62729 90.145 6.13286 88.0137 6.13286C85.0088 6.13286 83.5055 6.9569 83.5055 8.61023C83.5055 9.22738 83.8107 9.73232 84.4176 10.1233C84.9211 10.4371 86.3086 11.1051 88.5785 12.129C91.8448 13.5772 94.0252 14.8378 95.104 15.9108C96.3933 17.1837 97.0389 18.83 97.0389 20.8515C97.0389 23.7514 95.7759 25.9641 93.2499 27.4894C91.2098 28.7237 88.5557 29.3408 85.3035 29.3408C82.5529 29.3408 79.7831 29.0165 76.994 28.366" fill="black"/>
<path d="M99.2297 55.1546H105.278V50.1227H99.2297V42.8309H92.8112V50.1244H89.2503V55.1563H92.8112V66.5525C92.8112 70.4308 93.1796 74.2143 99.8297 74.2143C101.863 74.2143 104.308 73.6164 105.696 72.7398L104.308 68.4443C103.294 68.8598 102.322 69.1842 101.489 69.1842C99.7823 69.1842 99.2297 68.1673 99.2297 65.6303V55.1546ZM250.739 51.4639L250.756 51.4113C248.713 50.0736 246.034 49.2671 243.112 49.4196C238.367 49.6668 234.636 52.4948 234.895 57.3794C235.151 62.2693 238.718 63.4212 242.226 64.254C244.24 64.7502 245.924 65.1271 246.018 66.9242C246.111 68.6775 244.901 69.4331 243.196 69.5226C241.109 69.6313 238.469 68.7038 236.767 67.8289L234.855 72.2296C236.202 73.1308 239.675 74.4142 243.766 74.202C249.108 73.9215 252.607 71.1093 252.333 65.8986C252.081 61.1034 248.245 60.0549 244.824 59.1695C242.717 58.6348 241.165 58.1141 241.068 56.317C240.989 54.7934 242.203 54.1289 243.726 54.0482C245.301 53.9676 246.999 54.6584 248.801 55.9207L250.739 51.4639V51.4639ZM224.732 58.9854C224.823 56.5414 226.302 54.9705 228.608 54.9705C229.81 54.9705 230.92 55.2913 231.885 55.7998L233.041 50.2612C231.934 49.6616 230.505 49.4319 229.208 49.4319C227.04 49.4319 224.777 50.7223 223.67 53.4469L223.069 50.1209H217.85L218.313 54.185V73.5218H224.732V58.9854ZM154.5 73.5218V58.5226C154.5 56.3082 156.072 54.3708 158.517 54.3708C160.966 54.3708 161.376 56.2609 161.376 58.7996V73.5218H167.797V57.553C167.797 52.0162 165.025 49.4301 160.457 49.4301C157.363 49.4301 155.054 50.7258 153.484 52.8928L153.021 50.1227H147.666L148.083 54.462V73.5218H154.5ZM135.685 42.8133C135.685 43.7864 136.025 44.6104 136.63 45.1943C137.236 45.7728 138.106 46.1147 139.17 46.1147C140.209 46.1147 141.093 45.7746 141.714 45.1943C142.337 44.6104 142.696 43.7864 142.696 42.8133C142.696 41.9086 142.337 41.0846 141.714 40.4832C141.093 39.8871 140.209 39.5137 139.17 39.5137C138.128 39.5137 137.258 39.8854 136.648 40.4832C136.339 40.7876 136.095 41.1509 135.93 41.5514C135.764 41.952 135.681 42.3817 135.685 42.8151V42.8133ZM135.98 73.5253H142.4V50.1227H135.98V61.824V73.5253ZM117.005 73.5253V58.4332C117.005 56.2626 118.575 54.3708 120.929 54.3708C123.376 54.3708 123.883 56.217 123.883 58.6172V73.5235H130.301V57.6494C130.301 52.1565 127.67 49.4319 122.822 49.4319C120.559 49.4319 118.482 50.2629 117.005 51.8321V42.8309H110.586V73.5218L117.005 73.5253ZM76.9729 42.8747V66.5525C76.9729 70.4272 77.3412 74.2143 83.993 74.2143C86.0244 74.2143 88.4697 73.6147 89.8555 72.7363L88.4697 68.4425C87.454 68.8598 86.4857 69.1842 85.656 69.1842C83.9439 69.1842 83.3914 68.1673 83.3914 65.6286V42.8782L76.9729 42.8747ZM71.6174 73.5218L71.1543 68.8616V51.1361C67.646 49.8457 64.2271 49.4284 62.6571 49.4284C54.488 49.4284 50.4218 54.7373 50.4218 62.8602C50.4218 69.0895 52.6847 74.167 59.3803 74.167C61.8748 74.167 64.1815 73.2447 65.5673 71.1198L65.8006 71.1689L66.1216 73.52L71.6174 73.5218ZM64.7832 66.0458C64.7832 67.7518 63.3974 69.505 60.9977 69.505C57.5788 69.505 56.7947 66.2299 56.7947 62.4902C56.7947 57.9668 58.0875 54.185 61.8747 54.185C63.0746 54.185 64.1815 54.4129 64.7832 54.6899V66.0458ZM16.0226 42.8309V55.0599H6.60269V42.8309H0V73.5218H6.60269V60.8299H16.0226V73.5218H22.627V42.8309H16.0226ZM46.7293 56.1679C46.7293 51.7848 43.7279 49.4284 39.0636 49.4284C31.4926 49.4284 27.5667 55.6157 27.5667 62.399C27.5667 69.3209 30.7067 74.2125 38.5548 74.2125C43.2209 74.2125 46.4521 72.0911 47.0047 71.63L45.1593 67.338C43.8682 68.2129 41.8807 69.3209 39.3881 69.3209C35.878 69.3209 34.3992 66.9663 34.0765 64.7519C39.6635 64.5222 46.7293 63.1354 46.7293 56.1679V56.1679ZM41.0966 56.2153C41.0966 59.3975 36.7989 60.1373 33.7993 60.2303C33.9361 57.0446 35.6008 53.9536 38.7408 53.9536C40.1704 53.9536 41.0966 54.8302 41.0966 56.2153ZM213.326 56.1679C213.326 51.7848 210.325 49.4284 205.66 49.4284C198.089 49.4284 194.164 55.6157 194.164 62.399C194.164 69.3209 197.303 74.2125 205.152 74.2125C209.818 74.2125 213.049 72.0911 213.601 71.63L211.754 67.338C210.461 68.2129 208.478 69.3209 205.983 69.3209C202.475 69.3209 200.998 66.9663 200.673 64.7519C206.264 64.5222 213.326 63.1354 213.326 56.1679V56.1679ZM207.693 56.2153C207.693 59.3975 203.396 60.1373 200.396 60.2303C200.533 57.0446 202.198 53.9536 205.338 53.9536C206.767 53.9536 207.693 54.8302 207.693 56.2153ZM190.931 56.1679C190.931 51.7848 187.931 49.4284 183.265 49.4284C175.694 49.4284 171.77 55.6157 171.77 62.399C171.77 69.3209 174.91 74.2125 182.756 74.2125C187.422 74.2125 190.655 72.0911 191.208 71.63L189.361 67.338C188.068 68.2129 186.084 69.3209 183.589 69.3209C180.081 69.3209 178.602 66.9663 178.28 64.7519C183.868 64.5222 190.931 63.1354 190.931 56.1679ZM185.3 56.2153C185.3 59.3975 181.002 60.1373 178.002 60.2303C178.139 57.0446 179.804 53.9536 182.944 53.9536C184.374 53.9536 185.298 54.8302 185.298 56.2153" fill="black"/>
</g>
<defs>
<clipPath id="clip0_357_1435">
<rect width="310" height="75.9729" fill="white"/>
</clipPath>
</defs>
</svg>
