<?xml version="1.0" encoding="UTF-8" standalone="no"?>
<svg
   xmlns:dc="http://purl.org/dc/elements/1.1/"
   xmlns:cc="http://creativecommons.org/ns#"
   xmlns:rdf="http://www.w3.org/1999/02/22-rdf-syntax-ns#"
   xmlns:svg="http://www.w3.org/2000/svg"
   xmlns="http://www.w3.org/2000/svg"
   viewBox="0 0 188.97333 68.026665"
   height="68.026665"
   width="188.97333"
   xml:space="preserve"
   id="svg2"
   version="1.1"><metadata
     id="metadata8"><rdf:RDF><cc:Work
         rdf:about=""><dc:format>image/svg+xml</dc:format><dc:type
           rdf:resource="http://purl.org/dc/dcmitype/StillImage" /></cc:Work></rdf:RDF></metadata><defs
     id="defs6"><clipPath
       id="clipPath20"
       clipPathUnits="userSpaceOnUse"><path
         id="path18"
         d="M 2,281 V 502 H 188 V 281 Z" /></clipPath></defs><g
     transform="matrix(1.3333333,0,0,-1.3333333,0,68.026667)"
     id="g10"><g
       transform="scale(0.1)"
       id="g12"><g
         id="g14"><g
           clip-path="url(#clipPath20)"
           id="g16"><path
             id="path22"
             style="fill:none;stroke:#231f20;stroke-width:4.76200008;stroke-linecap:butt;stroke-linejoin:miter;stroke-miterlimit:3.8636899;stroke-dasharray:none;stroke-opacity:1"
             d="M 10.9258,498.664 H 178.383 V 371.723 c 0,-46.578 -37.543,-83.575 -83.6721,-83.606 -46.164,-0.031 -83.7851,37.442 -83.7851,83.606 0,0 0,75.164 0,126.941 z" /><path
             id="path24"
             style="fill:#231f20;fill-opacity:1;fill-rule:nonzero;stroke:none"
             d="m 97.1289,427.637 c 6.8671,0.222 12.0551,2.734 14.9181,5.75 1.707,1.578 3.234,3.133 3.82,5.347 l -2.793,1.094 c -0.562,-1.805 -1.429,-2.66 -2.84,-3.965 -2.675,-2.816 -8.293,-5.187 -14.7887,-5.187 -5.3984,0 -10.1914,1.773 -13.1914,3.844 -2.2969,1.449 -3.8281,2.835 -4.5703,5.335 l -2.7461,-1.269 c 0.7891,-2.934 3.0469,-5.02 5.7148,-6.707 3.1485,-2.172 7.3633,-4.004 12.9375,-4.234 v -28.25 H 78.1836 v -3.454 h 15.3789 v -50.828 h 3.5664 v 50.828 h 16.0701 v 3.454 H 97.1289 Z m -8.3242,46.492 c 4.7422,0 15.0393,-0.555 19.8403,-2.387 5.429,-2.398 8.347,-4.972 11.718,-10.746 1.715,-3.43 2.403,-4.629 3.258,-9.203 -6.117,0 -20.289,1.543 -17.203,-4.629 0.34,-0.855 4.398,-5.258 10.23,-6.289 7.489,-1.543 17.547,-0.168 25.379,2.918 2.688,1.027 -0.73,4.344 1.145,5.43 0,0 1.34,0.687 3.398,1.886 -0.515,1.371 -1.031,2.227 -1.543,3.543 l 10.262,5.317 7.488,-15.149 -10.433,-5.66 -3.543,7.301 c 2.109,1.629 2.086,1.543 5.629,3.945 -0.172,0.684 -0.344,1.125 -0.688,1.813 -1.371,-0.344 -6.258,-3.856 -6.429,-4.367 -0.684,-1.543 0.414,-2.344 0.074,-4.059 -0.516,-2.23 -1.875,-2.668 -3.934,-3.352 0,-0.687 0.172,-1.093 0.344,-1.609 2.57,0.516 4.031,1.371 4.887,4.117 1.004,-1.781 0.851,-2.394 1.855,-3.859 l -8.5,-5.188 v 8.004 c -0.687,0 -1.726,-0.343 -2.414,-0.515 v -99.457 c -3.598,0.343 -10.059,2 -12.461,5.257 -2.684,3.946 -2.172,8.86 -2.172,15.321 0,0.855 0.516,41.097 -0.512,45.898 -1.031,3.715 -2.515,5.543 -3.718,7.258 -1.199,1.715 -3.942,3.66 -5.828,4.344 v -76.649 l -38.4692,0.055 v 75.34 c -2.4609,-0.602 -3.8632,-1.36 -5.7148,-3.09 -2.3984,-2.238 -3.9453,-5.199 -3.9453,-7.43 0,0 -0.0586,-36.351 -0.0586,-45.898 0,-9.203 -1.0273,-11.203 -1.8867,-12.231 -3.4258,-5.488 -7.7149,-7.32 -13.5469,-7.32 0,34.238 0.2305,84.996 0.2305,91.973 0,3.371 0.5117,6.629 -2.5157,7.66 0,-2.402 -0.1992,-4.117 -0.1992,-6.977 l -15.1758,8.348 c 0.2618,0.848 0.4766,0.918 0.8204,1.777 2.2265,-0.515 2.4375,-1.078 4.4961,-1.765 0,0.172 0.414,1.187 0.414,1.187 0,0 -2.6094,1.715 -4.3242,1.715 0.3437,0.856 0.3086,0.832 0.6523,1 1.0274,0.516 2.5704,-0.855 4.8008,-1.371 0.1719,0.687 0.1719,1.172 0,1.344 -0.8594,0.855 -2.4883,0.937 -4.2031,1.797 -0.5703,0.503 -3.457,1.976 -6.543,4.203 0.1719,0.687 0.3242,0.812 0.668,1.328 0.8555,-0.516 4.9336,-3.102 6.6484,-3.957 0.1719,-0.172 0.5157,1.054 0.3438,1.054 -1.2031,1.032 -3.2578,1.887 -6.461,4.403 0.3438,0.515 0.6875,0.887 0.8594,1.574 2.5156,-1.543 4.2305,-3.086 6.8008,-4.914 1.3711,-1.031 2.2344,-1.383 3.2031,-2.586 1.0313,-1.887 -0.8008,-6.977 4.6289,-8.519 l 0.0703,1.617 c -3.5976,2.172 -2.0585,5.543 -3.4296,7.601 -0.8594,1.371 -5.1563,3.258 -3.1016,6.114 2.3437,-1.715 8.6875,-6.973 8.6875,-7.145 0.3437,-1.027 -1.1992,-3.941 1.6602,-5.773 2.914,-1.887 15.5468,-4.629 19.6054,-4.114 6.4571,0.512 13.7852,2.039 18.5899,7.469 0.8554,-1.027 1.832,-3.523 2.3476,-3.699 l 5.4297,1.539 c -0.0976,0.219 0.3633,5.379 0.3633,10.695 0,8.344 0.0859,10.27 -0.957,12.379 -1.7422,2.277 -2.3985,3.27 -6.918,5.383" /><path
             id="path26"
             style="fill:#231f20;fill-opacity:1;fill-rule:nonzero;stroke:none"
             d="m 82.0781,340.523 c 0,0 1.7149,0 6.1172,0 0,-6.003 0,-8.175 0,-8.175 -0.3437,-0.512 -2.0586,-0.856 -5.9453,-3.602 -4.8008,-3.426 -6.8047,-4.914 -11.4336,-7.828 0,8.344 6.9727,12.633 8.5156,14.633 1.2032,1.543 1.7149,4.629 2.7461,4.972" /><path
             id="path28"
             style="fill:none;stroke:#231f20;stroke-width:0.57099998;stroke-linecap:butt;stroke-linejoin:miter;stroke-miterlimit:3.86370993;stroke-dasharray:none;stroke-opacity:1"
             d="m 82.0781,340.523 c 0,0 1.7149,0 6.1172,0 0,-6.003 0,-8.175 0,-8.175 -0.3437,-0.512 -2.0586,-0.856 -5.9453,-3.602 -4.8008,-3.426 -6.8047,-4.914 -11.4336,-7.828 0,8.344 6.9727,12.633 8.5156,14.633 1.2032,1.543 1.7149,4.629 2.7461,4.972 z" /><path
             id="path30"
             style="fill:#231f20;fill-opacity:1;fill-rule:nonzero;stroke:none"
             d="m 101.855,340.523 c 4.629,0 6.29,0 6.29,0 0.168,-0.171 2.683,-5.316 4.57,-6.972 3.43,-3.946 5.601,-3.258 6.289,-12.633 -3.887,2.23 -5.945,3.941 -9.832,6.973 -4.117,3.086 -6,3.257 -6.859,4.457 -0.516,0.859 -0.403,2.972 -0.458,8.175" /><path
             id="path32"
             style="fill:none;stroke:#231f20;stroke-width:0.57099998;stroke-linecap:butt;stroke-linejoin:miter;stroke-miterlimit:3.86370993;stroke-dasharray:none;stroke-opacity:1"
             d="m 101.855,340.523 c 4.629,0 6.29,0 6.29,0 0.168,-0.171 2.683,-5.316 4.57,-6.972 3.43,-3.946 5.601,-3.258 6.289,-12.633 -3.887,2.23 -5.945,3.941 -9.832,6.973 -4.117,3.086 -6,3.257 -6.859,4.457 -0.516,0.859 -0.403,2.972 -0.458,8.175 z" /><path
             id="path34"
             style="fill:#231f20;fill-opacity:1;fill-rule:evenodd;stroke:none"
             d="m 83.4297,462.109 -0.0195,-0.203 c 2.7617,-1.414 2.9101,-1.386 5.5468,0.239 -0.7929,1.519 -2.1797,2.531 -3.9843,2.082 -1.043,-0.418 -1.418,-1.012 -1.543,-2.118 z m -1.0508,8.153 c -0.3633,-2.172 0.1172,-2.399 1.4688,-3.774 0.5781,1.547 0.9687,2.641 -1.4688,3.774 z m 2.1602,0.062 c -0.5039,-1.859 -0.3477,-2.758 1.6484,-3.699 0.1289,1.844 0.5391,2.152 -1.6484,3.699 z m 2.2695,-0.199 c -0.5078,-1.816 -0.5078,-2.441 1.6523,-3.695 0.1289,1.84 0.2774,2.308 -1.6523,3.695 z m 2.0703,0.098 c -0.6133,-1.95 -0.3125,-2.696 1.8359,-3.66 0.125,1.839 -0.2617,2.023 -1.8359,3.66 z m -5.5508,2.953 c 1.5469,0.355 3.4688,-0.34 5.0742,-1.055 2.1407,-1.367 4.9297,-3.687 5.4649,-6.187 0.5078,-1.52 -0.1914,-21.016 -0.1914,-21.016 L 93.293,444.66 c 0,0 -2.1485,4.278 -3.4453,5.5 -0.3594,0.18 -3.3907,-0.535 -8.6836,0 -0.3594,2.32 -0.5938,3.52 -0.5938,5.442 -0.9023,0.179 -1.0586,0.203 -1.9492,0.382 1.7812,8.86 -1.1797,14.625 4.707,17.192" /></g></g><path
         id="path36"
         style="fill:#000000;fill-opacity:1;fill-rule:nonzero;stroke:none"
         d="m 404.73,414.25 v 7.184 h -43.558 v 79.441 h -7.785 V 414.25 Z m 15.481,16.793 c 0,15.121 21.371,13.207 31.574,13.566 0.719,-12.605 -2.281,-25.574 -18.008,-25.574 -7.324,0 -13.566,3.84 -13.566,12.008 z m 31.574,20.152 c -8.762,-0.48 -19.207,0.719 -27.254,-2.754 -7.195,-2.992 -12.105,-9.234 -12.105,-17.398 0,-11.77 8.867,-18.594 20.031,-18.594 8.164,0 16.207,4.789 18.848,9.828 l 0.359,0.84 h 0.242 l 0.239,-8.867 h 7.425 c -0.238,4.078 -0.718,8.879 -0.597,13.559 v 28.55 c 0.238,13.809 -8.028,19.914 -21.356,19.914 -11.523,0 -20.762,-4.668 -22.554,-17.031 h 7.667 c 0.961,8.164 7.208,10.446 14.77,10.446 8.523,0 13.566,-3.122 14.285,-12.969 z m 33.106,-2.265 c 0,10.8 5.402,20.758 17.289,20.758 9.843,0 15.847,-6.118 15.847,-16.559 V 414.25 h 7.184 v 37.68 c 0,6.961 -1.559,24.343 -21.231,24.343 -7.804,0 -14.648,-3.472 -18.847,-10.902 l -0.242,0.238 -0.36,8.864 h -7.426 c 0.243,-4.078 0.602,-8.875 0.602,-13.555 V 414.25 h 7.184 z m 100.816,-3.129 c 0,-13.684 -4.805,-26.766 -20.527,-26.766 -13.809,0 -17.047,15.242 -17.047,26.406 0,11.524 4.441,24.247 18.125,24.247 14.047,0 19.449,-11.641 19.449,-23.887 z m 0.598,-31.551 h 7.425 c -0.238,4.078 -0.597,8.879 -0.597,13.559 v 73.066 h -7.188 v -35.266 l -0.238,-0.238 c -4.203,7.07 -12.605,10.902 -20.648,10.902 -17.887,0 -24.711,-16.062 -24.711,-31.664 0,-15.132 6.824,-32.16 24.711,-32.16 8.402,0 15.726,3.949 20.648,11.149 l 0.238,-0.481 z m 75.586,28.438 c 0,18.835 -7.305,33.585 -27.473,33.585 -17.887,0 -26.871,-15.589 -26.871,-31.906 0,-16.445 8.383,-31.918 26.391,-31.918 14.527,0 23.523,6.586 27.234,20.996 h -7.547 c -1.801,-8.285 -8.883,-14.41 -17.406,-14.41 -14.766,0 -20.649,10.805 -20.887,23.653 z m -46.321,6.585 c 0.961,10.571 7.203,20.415 18.969,20.415 12.484,0 18.727,-8.766 19.566,-20.415 z m 60.254,10.211 c 0,-11.16 9.586,-13.921 19.071,-16.203 9.605,-2.16 19.089,-3.601 19.089,-12.242 0,-8.402 -8.043,-12.004 -15.726,-12.004 -8.164,0 -16.086,2.641 -16.688,11.645 h -7.785 c 0.238,-13.321 12.227,-18.231 22.672,-18.231 12.727,0 25.313,6.106 25.313,19.668 0,6.485 -3.954,11.883 -10.184,14.047 -16.328,5.762 -27.977,4.918 -27.977,13.801 0,7.082 6.844,9.723 13.571,9.723 7.441,0 14.168,-2.52 14.886,-10.083 h 7.786 c -0.957,12.719 -10.547,16.668 -21.954,16.668 -10.566,0 -22.074,-4.308 -22.074,-16.789 z m 69.227,41.391 h -7.184 V 414.25 h 7.184 v 34.68 c 0,10.8 5.402,20.758 17.289,20.758 9.844,0 15.848,-6.118 15.848,-16.559 V 414.25 h 7.183 v 37.68 c 0,6.961 -1.558,24.343 -21.23,24.343 -7.805,0 -14.649,-3.472 -18.848,-10.902 h -0.242 z m 62.039,-69.832 c 0,15.121 21.371,13.207 31.578,13.566 0.715,-12.605 -2.281,-25.574 -18.012,-25.574 -7.32,0 -13.566,3.84 -13.566,12.008 z m 31.578,20.152 c -8.766,-0.48 -19.211,0.719 -27.254,-2.754 -7.199,-2.992 -12.109,-9.234 -12.109,-17.398 0,-11.77 8.867,-18.594 20.031,-18.594 8.164,0 16.207,4.789 18.852,9.828 l 0.359,0.84 h 0.238 l 0.238,-8.867 h 7.426 c -0.238,4.078 -0.719,8.879 -0.597,13.559 v 28.55 c 0.238,13.809 -8.028,19.914 -21.352,19.914 -11.527,0 -20.762,-4.668 -22.559,-17.031 h 7.672 c 0.961,8.164 7.203,10.446 14.766,10.446 8.523,0 13.566,-3.122 14.289,-12.969 z m 66.238,-11.402 c 0,-10.797 -5.402,-20.758 -17.289,-20.758 -9.844,0 -15.847,6.121 -15.847,16.559 v 38.879 h -7.184 v -37.68 c 0,-6.957 1.559,-24.344 21.23,-24.344 7.805,0 14.649,3.473 18.852,10.906 l 0.238,-0.242 0.36,-8.863 h 7.425 c -0.242,4.078 -0.601,8.879 -0.601,13.555 v 46.668 h -7.184 z m 32.387,6.008 c 0,12.246 5.398,23.887 19.445,23.887 13.688,0 18.367,-12.723 18.367,-24.247 0,-11.164 -3.48,-26.406 -17.285,-26.406 -15.726,0 -20.527,13.082 -20.527,26.766 z m 0,-22.203 h 0.238 c 4.922,-7.2 12.246,-11.149 21.008,-11.149 17.524,0 24.352,17.028 24.352,32.153 0,15.605 -6.828,31.671 -24.711,31.671 -8.043,0 -16.446,-3.832 -20.649,-10.906 l -0.238,0.242 -0.363,8.864 h -7.422 c 0.238,-4.078 0.719,-8.879 0.597,-13.559 v -69.703 h 7.188 z m 65.897,6.718 c 0,-8.16 -0.84,-17.867 14.38,-17.867 2.4,0 5.04,0.481 7.32,1.078 v 6.227 c -1.92,-0.598 -4.08,-0.719 -6.24,-0.719 -5.52,0 -8.4,3 -8.28,8.524 v 40.332 h 13.68 v 6.582 h -13.68 v 15.961 l -7.18,-3.121 v -12.84 h -12.002 v -6.582 h 12.002 z m 32.75,29.168 c 0,-11.16 9.59,-13.921 19.08,-16.203 9.6,-2.16 19.08,-3.601 19.08,-12.242 0,-8.402 -8.04,-12.004 -15.72,-12.004 -8.17,0 -16.09,2.641 -16.69,11.645 h -7.79 c 0.24,-13.321 12.23,-18.231 22.68,-18.231 12.72,0 25.31,6.106 25.31,19.668 0,6.485 -3.95,11.883 -10.19,14.047 -16.32,5.762 -27.97,4.918 -27.97,13.801 0,7.082 6.84,9.723 13.57,9.723 7.44,0 14.16,-2.52 14.88,-10.083 h 7.79 c -0.96,12.719 -10.55,16.668 -21.95,16.668 -10.57,0 -22.08,-4.308 -22.08,-16.789 z m 67.2,-29.168 c 0,-8.16 -0.84,-17.867 14.39,-17.867 2.4,0 5.04,0.481 7.32,1.078 v 6.227 c -1.92,-0.598 -4.08,-0.719 -6.24,-0.719 -5.52,0 -8.4,3 -8.28,8.524 v 40.332 h 13.68 v 6.582 h -13.68 v 15.961 l -7.19,-3.121 v -12.84 h -12 v -6.582 h 12 z m 39.71,0.727 c 0,15.121 21.37,13.207 31.57,13.566 0.72,-12.605 -2.28,-25.574 -18.01,-25.574 -7.32,0 -13.56,3.84 -13.56,12.008 z m 31.57,20.152 c -8.76,-0.48 -19.21,0.719 -27.25,-2.754 -7.2,-2.992 -12.11,-9.234 -12.11,-17.398 0,-11.77 8.87,-18.594 20.03,-18.594 8.17,0 16.21,4.789 18.85,9.828 l 0.36,0.84 h 0.24 l 0.24,-8.867 h 7.43 c -0.24,4.078 -0.72,8.879 -0.6,13.559 v 28.55 c 0.24,13.809 -8.03,19.914 -21.35,19.914 -11.53,0 -20.77,-4.668 -22.56,-17.031 h 7.67 c 0.96,8.164 7.2,10.446 14.77,10.446 8.52,0 13.56,-3.122 14.28,-12.969 z m 67.2,-5.394 c 0,-13.684 -4.8,-26.766 -20.53,-26.766 -13.8,0 -17.04,15.242 -17.04,26.406 0,11.524 4.44,24.247 18.12,24.247 14.05,0 19.45,-11.641 19.45,-23.887 z m 0.6,-31.551 h 7.43 c -0.24,4.078 -0.6,8.879 -0.6,13.559 v 73.066 h -7.19 v -35.266 l -0.24,-0.238 c -4.2,7.07 -12.6,10.902 -20.65,10.902 -17.88,0 -24.71,-16.062 -24.71,-31.664 0,-15.132 6.83,-32.16 24.71,-32.16 8.41,0 15.73,3.949 20.65,11.149 l 0.24,-0.481 z m 30,16.066 c 0,-8.16 -0.84,-17.867 14.39,-17.867 2.4,0 5.04,0.481 7.32,1.078 v 6.227 c -1.92,-0.598 -4.08,-0.719 -6.24,-0.719 -5.52,0 -8.4,3 -8.28,8.524 v 40.332 h 13.68 v 6.582 h -13.68 v 15.961 l -7.19,-3.121 v -12.84 h -12 v -6.582 h 12 v -37.575" /><path
         id="path38"
         style="fill:#000000;fill-opacity:1;fill-rule:nonzero;stroke:none"
         d="m 361.172,299.25 v 79.68 h 0.238 l 33.125,-79.68 h 7.805 l 33.125,80.039 h 0.242 V 299.25 h 7.785 v 86.625 h -11.867 l -33.246,-75.48 -32.527,75.48 H 353.387 V 299.25 Z m 142.078,74.277 v 10.547 h -8.867 v -10.547 z m -20.883,0 v 10.547 h -8.863 v -10.547 z m 22.578,-48.734 c 0,-10.801 -5.402,-20.758 -17.289,-20.758 -9.843,0 -15.847,6.121 -15.847,16.559 v 38.879 h -7.184 v -37.676 c 0,-6.961 1.555,-24.348 21.23,-24.348 7.805,0 14.649,3.473 18.848,10.906 l 0.242,-0.242 0.36,-8.863 h 7.425 c -0.242,4.078 -0.601,8.879 -0.601,13.555 v 46.668 h -7.184 z m 33.582,9.137 c 0,10.8 5.403,20.758 17.289,20.758 9.844,0 15.848,-6.118 15.848,-16.559 V 299.25 h 7.184 v 37.68 c 0,6.961 -1.555,24.343 -21.231,24.343 -7.804,0 -14.644,-3.472 -18.847,-10.906 l -0.243,0.242 -0.355,8.864 h -7.43 c 0.242,-4.078 0.602,-8.875 0.602,-13.555 V 299.25 h 7.183 z m 105.364,7.074 c -0.602,12.844 -10.668,20.269 -23.036,20.269 -17.886,0 -26.871,-15.585 -26.871,-31.91 0,-16.445 8.383,-31.914 26.395,-31.914 13.684,0 21.594,6.824 23.512,20.629 h -7.786 c -0.601,-8.281 -7.085,-14.043 -16.449,-14.043 -11.043,0 -17.886,11.645 -17.886,25.445 0,13.688 6.843,25.208 17.886,25.208 9.965,0 15.848,-4.442 16.449,-13.684 z m 15.359,44.871 h -7.184 V 299.25 h 7.184 v 34.68 c 0,10.8 5.402,20.758 17.289,20.758 9.844,0 15.848,-6.118 15.848,-16.559 V 299.25 h 7.183 v 37.68 c 0,6.961 -1.554,24.343 -21.23,24.343 -7.805,0 -14.649,-3.472 -18.848,-10.906 h -0.242 z m 110.281,-58.187 c 0,18.835 -7.308,33.585 -27.472,33.585 -17.887,0 -26.875,-15.589 -26.875,-31.906 0,-16.445 8.386,-31.918 26.394,-31.918 14.524,0 23.52,6.586 27.235,20.996 h -7.547 c -1.801,-8.289 -8.883,-14.41 -17.407,-14.41 -14.765,0 -20.648,10.805 -20.89,23.653 z m -46.32,6.585 c 0.961,10.571 7.203,20.415 18.969,20.415 12.48,0 18.726,-8.766 19.566,-20.415 z m 69.48,-0.343 c 0,10.8 5.403,20.758 17.286,20.758 9.847,0 15.847,-6.118 15.847,-16.559 V 299.25 h 7.188 v 37.68 c 0,6.961 -1.559,24.343 -21.235,24.343 -7.8,0 -14.644,-3.472 -18.847,-10.906 l -0.239,0.242 -0.359,8.864 h -7.426 c 0.239,-4.078 0.598,-8.875 0.598,-13.555 V 299.25 h 7.187 v 34.68" /><path
         id="path40"
         style="fill:#000000;fill-opacity:1;fill-rule:nonzero;stroke:none"
         d="m 352.914,175.898 h 18.582 v 86.985 h -18.582 z m 53.879,0 h 18.703 v 72.36 h 25.801 v 14.383 h -70.305 v -14.383 h 25.801 z m 43.281,24.957 h 29.746 v 13.547 h -29.746 z m 44.379,-24.957 h 18.945 v 35.04 h 16.329 c 3.121,0 7.683,0 9.363,-4.922 1.203,-3.36 3.84,-25.321 4.68,-30.118 h 20.507 c -0.961,1.438 -1.679,2.399 -2.64,6.239 -0.602,2.398 -1.321,6.601 -2.641,16.801 -1.555,11.281 -2.516,18.71 -15.586,19.91 4.195,1.199 18.106,5.035 18.106,21.246 0,5.64 -2.157,12 -7.555,16.676 -6.953,5.992 -16.672,5.992 -26.277,5.871 h -33.231 z m 18.344,73.079 h 12.484 c 5.887,0 9.367,0 12.246,-2.039 1.684,-1.083 4.567,-3.844 4.567,-9.727 0,-6.125 -3.485,-9.125 -4.805,-10.086 -3.004,-2.402 -7.324,-2.402 -9.484,-2.402 h -15.008 z m 117.457,-47.282 c 0.238,5.035 0.476,13.91 -3.598,22.2 -5.515,11.273 -15.832,14.628 -24.476,14.628 -6.606,0 -12.367,-1.918 -17.043,-5.035 -10.192,-7.07 -12.59,-18.843 -12.59,-28.675 0,-9.723 2.277,-17.891 7.793,-23.645 6.355,-6.594 16.195,-7.551 21.359,-7.551 8.887,0 16.801,2.399 21.239,7.071 4.917,5.156 5.515,10.32 5.753,13.203 h -16.183 c -1.684,-6.727 -6.125,-8.411 -10.567,-8.411 -12.371,0 -12.371,12.254 -12.371,16.215 z m -40.082,11.149 c 0.359,7.086 3.601,13.574 11.406,13.574 10.328,0 10.57,-10.813 10.57,-13.574 z m 54.855,-36.946 h 17.625 v 48 h 11.282 v 12.582 h -11.282 v 7.09 c 0,3.121 0,7.926 9.121,7.926 1.438,0 1.918,-0.117 3.719,-0.359 v 12.343 c -5.039,0.602 -8.398,0.602 -9.601,0.602 -17.266,0 -20.864,-8.629 -20.864,-19.312 v -8.29 h -9 v -12.582 h 9 z m 93.645,25.797 c 0.238,5.035 0.48,13.91 -3.598,22.2 -5.515,11.273 -15.828,14.628 -24.476,14.628 -6.602,0 -12.368,-1.918 -17.043,-5.035 -10.192,-7.07 -12.59,-18.843 -12.59,-28.675 0,-9.723 2.277,-17.891 7.793,-23.645 6.355,-6.594 16.195,-7.551 21.359,-7.551 8.887,0 16.805,2.399 21.238,7.071 4.918,5.156 5.516,10.32 5.758,13.203 h -16.187 c -1.68,-6.727 -6.125,-8.411 -10.567,-8.411 -12.367,0 -12.367,12.254 -12.367,16.215 z m -40.082,11.149 c 0.359,7.086 3.605,13.574 11.41,13.574 10.324,0 10.566,-10.813 10.566,-13.574 z m 52.863,-36.946 h 17.746 v 29.872 c 0,7.558 1.078,16.796 19.078,15.117 v 15.957 c -14.398,0.719 -18.359,-6.602 -20.636,-11.758 l -0.36,11.637 h -16.668 c 0.36,-3.481 0.84,-12.239 0.84,-15.118 z m 99.406,0 c -1.082,5.04 -1.441,10.2 -1.441,15.36 l -0.121,24.344 c 0,2.765 -0.117,9.972 -4.195,14.89 -5.997,6.949 -16.551,7.789 -21.598,7.789 -5.766,0 -12.844,-0.957 -18.356,-4.914 -6.355,-4.558 -6.714,-11.031 -6.835,-14.269 h 17.386 c 0,1.429 0,3.351 1.321,5.394 1.558,2.285 4.203,3.363 6.726,3.363 1.68,0 6.363,-0.597 7.926,-5.042 0.723,-2.165 0.84,-4.086 0.84,-8.051 -5.883,0 -16.574,0 -24.008,-3.356 -11.152,-5.152 -12.832,-14.035 -12.832,-18.84 0,-4.8 1.68,-9.718 5.277,-13.316 2.399,-2.277 6.356,-4.793 15.11,-4.793 3.363,0 11.41,0 18.132,9.707 0,-1.785 0,-4.547 0.602,-8.266 z m -18.347,28.559 c 0,-6.484 -0.239,-11.168 -3.364,-15.012 -1.679,-1.922 -4.32,-3.484 -7.562,-3.484 -5.887,0 -8.648,4.566 -8.648,8.648 0,7.207 8.167,10.809 19.574,9.848 z m 69.105,-16.094 c -2.16,-0.242 -3.359,-0.359 -6,-0.359 -7.918,0 -7.918,3.492 -8.039,9.031 v 27.461 h 14.399 v 11.746 h -14.399 v 18.36 l -17.625,-6.481 v -11.879 h -11.64 v -11.746 h 11.64 v -33.363 c 0,-5.047 0,-16.317 17.863,-16.317 2.883,0 8.043,0.36 13.801,1.918 v 11.629" /><path
         id="path42"
         style="fill:#000000;fill-opacity:1;fill-rule:nonzero;stroke:none"
         d="M 353.23,66.0039 V 5.77734 h 7.184 V 66.0039 Z m 7.786,26.3984 h -8.387 V 83.418 h 8.387 z m 22.742,-70.5546 c 0,-8.1641 -0.844,-17.87114 14.383,-17.87114 2.402,0 5.039,0.48047 7.32,1.07813 v 6.22661 c -1.922,-0.5977 -4.078,-0.7188 -6.238,-0.7188 -5.524,0 -8.403,3 -8.282,8.5234 V 59.418 h 13.68 v 6.5859 h -13.68 v 15.957 l -7.183,-3.1171 V 66.0039 h -12 V 59.418 h 12 z m 59.539,18.7187 c 0,10.8047 8.043,28.2109 20.766,28.2109 4.8,0 8.164,-3.8398 8.164,-8.5234 0,-10.6836 -8.766,-30.8516 -19.688,-30.9726 -6.004,0 -9.242,5.5234 -9.242,11.2851 z m 33.848,27.6094 c -2.399,5.1523 -7.801,7.7851 -13.325,7.7851 -17.644,0 -29.507,-20.0273 -29.507,-35.9961 0,-9.8398 6.23,-17.8671 16.425,-17.8671 5.043,0 10.684,2.2734 14.285,5.9882 1.321,-4.3125 6,-6.2304 10.204,-6.2304 12.722,0 27.711,15.9492 27.711,34.7968 0,21.711 -18.231,37.5508 -41.036,37.5508 -24.234,0 -44.632,-20.0351 -44.632,-44.7539 0,-25.0781 19.558,-45.47264 45.113,-45.47264 15.601,0 31.09,8.38674 38.515,22.19144 h -6.949 C 486.75,15.8516 474.625,9.96094 462.383,9.96094 c -21.485,0 -37.926,17.16406 -37.926,38.64846 0,21.6054 15.606,39.6094 37.684,39.6094 18.007,0 33.609,-11.8946 33.609,-31.2071 0,-12.7226 -9,-28.5703 -18.844,-28.5703 -4.801,0 -3.84,3.9609 -2.043,9.2461 l 12.004,36 h -7.922 z M 528.926,5.77734 V 85.457 h 0.242 L 562.293,5.77734 h 7.801 l 33.129,80.03906 h 0.238 V 5.77734 h 7.785 V 92.4023 H 599.383 L 566.133,16.9219 533.609,92.4023 H 521.141 V 5.77734 h 7.785" /></g></g></svg>