<svg width="28" height="28" viewBox="0 0 28 28" fill="none" xmlns="http://www.w3.org/2000/svg">
<path fill-rule="evenodd" clip-rule="evenodd" d="M25.084 3.5C24.7303 4.63587 23.8074 6.81146 22.8283 7.41066C23.7859 7.29539 25.2632 7.79566 26.1125 7.41066C24.912 8.16675 24.1131 8.96362 23.1867 9.64962C23.1942 9.85635 23.1867 10.5038 23.1867 10.7152C23.1867 17.1375 18.4323 23.618 9.715 23.618C7.0396 23.618 4.54947 22.8121 2.45133 21.4359C2.82187 21.4793 3.1994 21.5031 3.58207 21.5031C5.8006 21.5031 7.84554 20.7261 9.4672 19.4217C7.39334 19.3835 4.10452 18.8464 3.50065 16.9168C3.78905 16.9742 5.62747 16.135 5.93267 16.135C6.36574 16.135 6.7848 16.0776 7.18147 15.9642C5.01147 15.519 2.33398 14.0225 2.33398 11.6668C2.97378 12.0275 4.75153 11.7222 5.5262 11.7441C4.2536 10.8729 3.41873 9.38606 3.41873 7.70186C3.41873 6.81146 3.65207 5.97426 4.05853 5.25466C6.397 8.19746 9.8886 10.1318 13.8273 10.3339C13.7456 9.97779 13.7045 9.60726 13.7045 9.22739C13.7045 6.54452 15.8265 4.36939 18.4421 4.36939C19.8062 4.36939 20.7202 4.30453 21.584 5.25C22.6643 5.03347 24.1675 4.05813 25.084 3.5Z" stroke="white" stroke-width="2" stroke-linejoin="round"/>
</svg>
