<svg width="18" height="16" viewBox="0 0 18 16" fill="none" xmlns="http://www.w3.org/2000/svg">
<path d="M16.3337 14V12.6667C16.3337 11.1939 15.1398 10 13.667 10H13.3337M11.0003 7.33333C12.4731 7.33333 13.667 6.13943 13.667 4.66667C13.667 3.19391 12.4731 2 11.0003 2M12.3337 14V12.6667C12.3337 11.1939 11.1398 10 9.66699 10H4.33366C2.8609 10 1.66699 11.1939 1.66699 12.6667V14M9.66699 4.66667C9.66699 6.13943 8.47308 7.33333 7.00033 7.33333C5.52757 7.33333 4.33366 6.13943 4.33366 4.66667C4.33366 3.19391 5.52757 2 7.00033 2C8.47308 2 9.66699 3.19391 9.66699 4.66667Z" stroke="#151515" stroke-width="1.5" stroke-linecap="round" stroke-linejoin="round"/>
</svg>
