<svg width="40" height="40" viewBox="0 0 40 40" fill="none" xmlns="http://www.w3.org/2000/svg">
<path fill-rule="evenodd" clip-rule="evenodd" d="M23.0787 12.9054C22.3707 13.7718 21.9683 15.1545 22.257 17.1547L22.3178 17.5758L19.8474 20.0462L12.4783 26.9547C12.1282 27.2829 12.1193 27.8358 12.4587 28.1752L13.2561 28.9726C13.5879 29.3044 14.1258 29.3044 14.4575 28.9726L23.7645 19.6657L24.1171 19.6662C27.0543 19.6703 28.6246 18.8768 29.4518 17.9851C29.9817 17.414 30.2624 16.7426 30.3771 16.0783C29.8326 16.5738 29.161 17.0947 28.4402 17.442C27.8623 17.7205 27.1856 17.9206 26.4808 17.8468C25.7442 17.7697 25.0735 17.4031 24.5324 16.7268C23.6555 15.6306 23.7107 14.4061 24.1296 13.3737C24.38 12.7563 24.767 12.1802 25.1911 11.676C24.3 11.8632 23.5835 12.2877 23.0787 12.9054ZM21.7631 11.8303C22.8599 10.488 24.514 9.85587 26.3397 9.8688C26.9447 9.87309 27.3682 10.2803 27.5101 10.7413C27.6461 11.1834 27.5423 11.7109 27.1521 12.0762C26.5376 12.6513 25.9762 13.3414 25.704 14.0124C25.4465 14.6473 25.4699 15.1788 25.8592 15.6654C26.1411 16.0177 26.4108 16.1311 26.6577 16.1569C26.9362 16.1861 27.2859 16.1122 27.7026 15.9114C28.5479 15.5041 29.3902 14.7128 29.9431 14.1167C30.2872 13.7458 30.7865 13.6278 31.2218 13.7457C31.6755 13.8685 32.0759 14.2596 32.1203 14.8305C32.2214 16.1296 31.9442 17.7968 30.6974 19.1407C29.4907 20.4415 27.5019 21.3037 24.4709 21.3621L15.659 30.174C14.6637 31.1693 13.05 31.1693 12.0547 30.174L11.2572 29.3766C10.2391 28.3585 10.2659 26.6998 11.3163 25.7151L18.0605 19.3924L13.651 14.6123C13.3329 14.2674 13.3546 13.73 13.6994 13.4118C14.0443 13.0937 14.5818 13.1154 14.8999 13.4603L19.2811 18.2096L20.5217 16.969C20.2963 14.8407 20.7378 13.0849 21.7631 11.8303Z" fill="black"/>
<path fill-rule="evenodd" clip-rule="evenodd" d="M23.7789 21.9163L21.7364 23.9588L27.3747 29.5971L29.4172 27.5546L23.7789 21.9163ZM20.5349 22.7574C19.8714 23.4209 19.8714 24.4967 20.5349 25.1603L26.1732 30.7986C26.8368 31.4621 27.9126 31.4621 28.5761 30.7986L30.6186 28.756C31.2822 28.0925 31.2822 27.0167 30.6186 26.3532L24.9803 20.7149C24.3168 20.0513 23.241 20.0513 22.5775 20.7149L20.5349 22.7574Z" fill="black"/>
<path fill-rule="evenodd" clip-rule="evenodd" d="M10.876 10.8395C10.6345 11.0811 10.5735 11.4495 10.7243 11.756L12.3865 15.1346C12.6435 15.6569 13.3378 15.7719 13.7495 15.3603L15.3968 13.7129C15.8084 13.3013 15.6935 12.6069 15.1711 12.3499L11.7924 10.6878C11.486 10.537 11.1175 10.598 10.876 10.8395Z" fill="black"/>
</svg>
