<svg width="70" height="68" viewBox="0 0 70 68" fill="none" xmlns="http://www.w3.org/2000/svg">
<path d="M40.2797 48.63H33.5896C31.7896 48.63 30.1696 48.33 28.7296 47.73C27.2896 47.15 26.0596 46.32 25.0396 45.24C24.0396 44.16 23.2596 42.87 22.6996 41.37C22.1596 39.85 21.8896 38.17 21.8896 36.33C21.8896 34.49 22.1696 32.8 22.7296 31.26C23.2896 29.72 24.0796 28.4 25.0996 27.3C26.1396 26.18 27.3896 25.31 28.8496 24.69C30.3296 24.07 31.9696 23.76 33.7696 23.76C35.3096 23.76 36.7596 24 38.1196 24.48C39.4997 24.94 40.6997 25.65 41.7197 26.61C42.7397 27.55 43.5496 28.73 44.1497 30.15C44.7497 31.57 45.0497 33.24 45.0497 35.16C45.0497 36.26 44.9396 37.28 44.7197 38.22C44.4996 39.14 44.1596 39.94 43.6996 40.62C43.2596 41.3 42.6996 41.83 42.0196 42.21C41.3396 42.59 40.5497 42.78 39.6497 42.78C38.6297 42.78 37.8396 42.54 37.2796 42.06C36.7196 41.56 36.3996 40.91 36.3196 40.11H36.1697C35.8697 40.93 35.4196 41.58 34.8196 42.06C34.2396 42.54 33.4896 42.78 32.5696 42.78C31.8896 42.78 31.2496 42.65 30.6496 42.39C30.0496 42.11 29.5196 41.71 29.0596 41.19C28.6196 40.65 28.2696 39.98 28.0096 39.18C27.7496 38.36 27.6196 37.41 27.6196 36.33C27.6196 35.25 27.7496 34.31 28.0096 33.51C28.2696 32.69 28.6196 32.02 29.0596 31.5C29.5196 30.96 30.0496 30.56 30.6496 30.3C31.2496 30.02 31.8896 29.88 32.5696 29.88C33.4896 29.88 34.2096 30.11 34.7296 30.57C35.2496 31.01 35.6196 31.55 35.8396 32.19H35.9896V30.15H38.5996V38.85C38.5996 39.51 38.7196 39.97 38.9597 40.23C39.2197 40.49 39.5996 40.62 40.0996 40.62C40.9396 40.62 41.5796 40.19 42.0196 39.33C42.4796 38.45 42.7097 37.2 42.7097 35.58V34.41C42.7097 33.11 42.4796 31.94 42.0196 30.9C41.5796 29.84 40.9597 28.95 40.1597 28.23C39.3597 27.49 38.4096 26.92 37.3096 26.52C36.2096 26.12 35.0196 25.92 33.7396 25.92C32.3196 25.92 31.0196 26.17 29.8396 26.67C28.6796 27.15 27.6796 27.82 26.8396 28.68C26.0196 29.52 25.3796 30.53 24.9196 31.71C24.4596 32.87 24.2296 34.14 24.2296 35.52V37.02C24.2296 38.42 24.4496 39.7 24.8896 40.86C25.3496 42 25.9896 42.99 26.8096 43.83C27.6296 44.65 28.6096 45.29 29.7496 45.75C30.9096 46.21 32.1996 46.44 33.6196 46.44H40.2797V48.63ZM33.3496 40.47C34.1896 40.47 34.8396 40.24 35.2996 39.78C35.7596 39.32 35.9896 38.73 35.9896 38.01V34.41C35.9896 33.77 35.7596 33.24 35.2996 32.82C34.8396 32.38 34.1896 32.16 33.3496 32.16C32.4296 32.16 31.7296 32.44 31.2496 33C30.7696 33.54 30.5296 34.26 30.5296 35.16V37.47C30.5296 38.37 30.7696 39.1 31.2496 39.66C31.7296 40.2 32.4296 40.47 33.3496 40.47Z" fill="white"/>
</svg>
