<svg width="72" height="72" viewBox="0 0 72 72" fill="none" xmlns="http://www.w3.org/2000/svg">
<path fill-rule="evenodd" clip-rule="evenodd" d="M36 21C27.7125 21 21 27.7125 21 36C21 42.6375 25.2937 48.2438 31.2562 50.2313C32.0062 50.3625 32.2875 49.9125 32.2875 49.5188C32.2875 49.1625 32.2688 47.9813 32.2688 46.725C28.5 47.4188 27.525 45.8062 27.225 44.9625C27.0562 44.5312 26.325 43.2 25.6875 42.8437C25.1625 42.5625 24.4125 41.8687 25.6688 41.85C26.85 41.8312 27.6938 42.9375 27.975 43.3875C29.325 45.6562 31.4813 45.0188 32.3438 44.625C32.475 43.65 32.8687 42.9937 33.3 42.6187C29.9625 42.2437 26.475 40.95 26.475 35.2125C26.475 33.5812 27.0563 32.2312 28.0125 31.1812C27.8625 30.8062 27.3375 29.2687 28.1625 27.2062C28.1625 27.2062 29.4188 26.8125 32.2875 28.7438C33.4875 28.4063 34.7625 28.2375 36.0375 28.2375C37.3125 28.2375 38.5875 28.4063 39.7875 28.7438C42.6563 26.7938 43.9125 27.2062 43.9125 27.2062C44.7375 29.2687 44.2125 30.8062 44.0625 31.1812C45.0188 32.2312 45.6 33.5625 45.6 35.2125C45.6 40.9687 42.0938 42.2437 38.7563 42.6187C39.3 43.0875 39.7688 43.9875 39.7688 45.3938C39.7688 47.4 39.75 49.0125 39.75 49.5188C39.75 49.9125 40.0313 50.3813 40.7813 50.2313C46.7063 48.2438 51 42.6187 51 36C51 27.7125 44.2875 21 36 21Z" fill="white"/>
</svg>
