<svg width="71" height="72" viewBox="0 0 71 72" fill="none" xmlns="http://www.w3.org/2000/svg">
<path d="M24.6264 40.6262C24.2359 41.0168 24.2359 41.6499 24.6264 42.0404C25.0169 42.431 25.6501 42.431 26.0406 42.0404L24.6264 40.6262ZM46.6668 41.3333L47.3739 42.0404C47.5615 41.8529 47.6668 41.5986 47.6668 41.3333H46.6668ZM46.6668 25.3333H47.6668C47.6668 24.9289 47.4232 24.5642 47.0495 24.4095C46.6758 24.2547 46.2457 24.3402 45.9597 24.6262L46.6668 25.3333ZM25.3335 25.3333L24.6264 24.6262C24.4389 24.8138 24.3335 25.0681 24.3335 25.3333H25.3335ZM24.3335 48C24.3335 48.5523 24.7812 49 25.3335 49C25.8858 49 26.3335 48.5523 26.3335 48H24.3335ZM25.3335 41.3333C26.0406 42.0404 26.0401 42.041 26.0396 42.0415C26.0394 42.0416 26.0389 42.0421 26.0386 42.0425C26.0379 42.0431 26.0373 42.0437 26.0367 42.0443C26.0355 42.0456 26.0343 42.0467 26.0332 42.0477C26.0311 42.0499 26.0292 42.0516 26.0277 42.0531C26.0246 42.0561 26.0227 42.0578 26.0221 42.0583C26.021 42.0594 26.0249 42.0557 26.0343 42.048C26.0531 42.0325 26.0938 42.0006 26.159 41.9571C26.2892 41.8703 26.5194 41.736 26.8716 41.5951C27.574 41.3142 28.7795 41 30.6668 41V39C28.5541 39 27.093 39.3525 26.1288 39.7382C25.6476 39.9307 25.2945 40.1297 25.0496 40.293C24.9274 40.3744 24.8327 40.4466 24.7629 40.5041C24.728 40.5328 24.6994 40.5578 24.6768 40.5784C24.6655 40.5887 24.6556 40.5979 24.6472 40.6059C24.643 40.6099 24.6392 40.6136 24.6357 40.617C24.634 40.6187 24.6324 40.6203 24.6308 40.6218C24.63 40.6226 24.6293 40.6234 24.6285 40.6241C24.6282 40.6245 24.6276 40.625 24.6274 40.6252C24.6269 40.6257 24.6264 40.6262 25.3335 41.3333ZM30.6668 41C32.4475 41 33.944 41.5879 35.6288 42.2618C37.2773 42.9212 39.1142 43.6667 41.3335 43.6667V41.6667C39.5528 41.6667 38.0563 41.0788 36.3716 40.4049C34.723 39.7454 32.8861 39 30.6668 39V41ZM41.3335 43.6667C43.4462 43.6667 44.9073 43.3142 45.8716 42.9285C46.3528 42.736 46.7058 42.537 46.9507 42.3737C47.0729 42.2922 47.1677 42.22 47.2374 42.1626C47.2723 42.1338 47.3009 42.1088 47.3236 42.0882C47.3349 42.078 47.3447 42.0688 47.3531 42.0608C47.3573 42.0568 47.3611 42.0531 47.3646 42.0497C47.3663 42.048 47.368 42.0464 47.3695 42.0448C47.3703 42.0441 47.3711 42.0433 47.3718 42.0426C47.3722 42.0422 47.3727 42.0417 47.3729 42.0415C47.3734 42.041 47.3739 42.0404 46.6668 41.3333C45.9597 40.6262 45.9602 40.6257 45.9607 40.6252C45.9609 40.625 45.9614 40.6245 45.9617 40.6242C45.9624 40.6236 45.963 40.6229 45.9636 40.6223C45.9649 40.6211 45.966 40.62 45.9671 40.6189C45.9693 40.6168 45.9711 40.615 45.9727 40.6136C45.9758 40.6106 45.9776 40.6089 45.9782 40.6084C45.9794 40.6073 45.9754 40.611 45.966 40.6187C45.9473 40.6341 45.9066 40.6661 45.8413 40.7096C45.7111 40.7964 45.4809 40.9307 45.1288 41.0715C44.4263 41.3525 43.2208 41.6667 41.3335 41.6667V43.6667ZM47.6668 41.3333V25.3333H45.6668V41.3333H47.6668ZM46.6668 25.3333C45.9597 24.6262 45.9602 24.6257 45.9607 24.6252C45.9609 24.625 45.9614 24.6245 45.9617 24.6242C45.9624 24.6236 45.963 24.6229 45.9636 24.6223C45.9649 24.6211 45.966 24.62 45.9671 24.6189C45.9693 24.6168 45.9711 24.615 45.9727 24.6136C45.9758 24.6106 45.9776 24.6089 45.9782 24.6084C45.9794 24.6073 45.9754 24.611 45.966 24.6187C45.9473 24.6341 45.9066 24.6661 45.8413 24.7096C45.7111 24.7964 45.4809 24.9307 45.1288 25.0715C44.4263 25.3525 43.2208 25.6667 41.3335 25.6667V27.6667C43.4462 27.6667 44.9073 27.3142 45.8716 26.9285C46.3528 26.736 46.7058 26.537 46.9507 26.3737C47.0729 26.2922 47.1677 26.22 47.2374 26.1626C47.2723 26.1338 47.3009 26.1088 47.3236 26.0882C47.3349 26.078 47.3447 26.0688 47.3531 26.0608C47.3573 26.0568 47.3611 26.0531 47.3646 26.0497C47.3663 26.048 47.368 26.0464 47.3695 26.0448C47.3703 26.0441 47.3711 26.0433 47.3718 26.0426C47.3722 26.0422 47.3727 26.0417 47.3729 26.0415C47.3734 26.041 47.3739 26.0404 46.6668 25.3333ZM41.3335 25.6667C39.5528 25.6667 38.0563 25.0788 36.3716 24.4049C34.723 23.7454 32.8861 23 30.6668 23V25C32.4475 25 33.944 25.5879 35.6288 26.2618C37.2773 26.9212 39.1142 27.6667 41.3335 27.6667V25.6667ZM30.6668 23C28.5541 23 27.093 23.3525 26.1288 23.7382C25.6476 23.9307 25.2945 24.1297 25.0496 24.2929C24.9274 24.3744 24.8327 24.4466 24.7629 24.5041C24.728 24.5328 24.6994 24.5578 24.6768 24.5784C24.6655 24.5887 24.6556 24.5979 24.6472 24.6059C24.643 24.6099 24.6392 24.6136 24.6357 24.617C24.634 24.6187 24.6324 24.6203 24.6308 24.6218C24.63 24.6226 24.6293 24.6234 24.6285 24.6241C24.6282 24.6245 24.6276 24.625 24.6274 24.6252C24.6269 24.6257 24.6264 24.6262 25.3335 25.3333C26.0406 26.0404 26.0401 26.041 26.0396 26.0415C26.0394 26.0416 26.0389 26.0421 26.0386 26.0424C26.0379 26.0431 26.0373 26.0437 26.0367 26.0443C26.0355 26.0456 26.0343 26.0467 26.0332 26.0477C26.0311 26.0499 26.0292 26.0516 26.0277 26.0531C26.0246 26.0561 26.0227 26.0578 26.0221 26.0583C26.021 26.0594 26.0249 26.0557 26.0343 26.048C26.0531 26.0325 26.0938 26.0006 26.159 25.9571C26.2892 25.8703 26.5194 25.736 26.8716 25.5951C27.574 25.3142 28.7795 25 30.6668 25V23ZM24.3335 25.3333V48H26.3335V25.3333H24.3335Z" fill="white"/>
</svg>
