<svg width="72" height="72" viewBox="0 0 72 72" fill="none" xmlns="http://www.w3.org/2000/svg">
<path d="M27.5674 29.2781C26.9068 29.2781 26.4211 29.1227 26.1102 28.8118C25.8188 28.501 25.6731 28.1027 25.6731 27.6169V27.1215C25.6731 26.6358 25.8188 26.2375 26.1102 25.9266C26.4211 25.6158 26.9068 25.4604 27.5674 25.4604C28.2279 25.4604 28.704 25.6158 28.9954 25.9266C29.2868 26.2375 29.4325 26.6358 29.4325 27.1215V27.6169C29.4325 28.1027 29.2868 28.501 28.9954 28.8118C28.704 29.1227 28.2279 29.2781 27.5674 29.2781ZM25.9645 31.9884H29.1411V47.1428H25.9645V31.9884ZM33.6772 47.1428V31.9884H36.8538V34.4947H36.9995C37.3298 33.6787 37.8252 32.9987 38.4858 32.4547C39.1658 31.9107 40.0887 31.6387 41.2544 31.6387C42.8087 31.6387 44.0133 32.1536 44.8681 33.1833C45.7424 34.1936 46.1796 35.641 46.1796 37.5256V47.1428H43.003V37.9336C43.003 35.5633 42.051 34.3781 40.1469 34.3781C39.7389 34.3781 39.3309 34.4364 38.9229 34.553C38.5344 34.6501 38.1846 34.8056 37.8738 35.0193C37.5629 35.233 37.3103 35.505 37.1161 35.8353C36.9412 36.1656 36.8538 36.5542 36.8538 37.001V47.1428H33.6772Z" fill="white"/>
</svg>
