<svg width="72" height="72" viewBox="0 0 72 72" fill="none" xmlns="http://www.w3.org/2000/svg">
<path d="M47.3337 33.1667V44.5C47.3337 46.0648 46.0651 47.3333 44.5003 47.3333H27.5003C25.9355 47.3333 24.667 46.0648 24.667 44.5V33.1667M40.2503 27.5V26.0833C40.2503 24.5185 38.9818 23.25 37.417 23.25H34.5837C33.0189 23.25 31.7503 24.5185 31.7503 26.0833V27.5M36.0003 36V41.6667M27.5003 38.8333H44.5003C46.0651 38.8333 47.3337 37.5648 47.3337 36V30.3333C47.3337 28.7685 46.0651 27.5 44.5003 27.5H27.5003C25.9355 27.5 24.667 28.7685 24.667 30.3333V36C24.667 37.5648 25.9355 38.8333 27.5003 38.8333Z" stroke="white" stroke-width="2.125" stroke-linecap="round" stroke-linejoin="round"/>
</svg>
